<?xml version="1.0" standalone="no"?>
<!DOCTYPE svg PUBLIC "-//W3C//DTD SVG 1.1//EN" "http://www.w3.org/Graphics/SVG/1.1/DTD/svg11.dtd" >
<svg xmlns="http://www.w3.org/2000/svg" xmlns:xlink="http://www.w3.org/1999/xlink" version="1.1">
<metadata>
Created by FontForge 20201107 at Mon Aug 20 02:43:07 2018
 By 

Created by iconfont

</metadata>
<defs>
<font id="layui-icon" horiz-adv-x="1024" >
  <font-face 
    font-family="layui-icon"
    font-weight="400"
    font-stretch="normal"
    units-per-em="1024"
    panose-1="2 0 5 3 0 0 0 0 0 0"
    ascent="896"
    descent="-128"
    bbox="-0.0714286 -128 1385 896"
    underline-thickness="0"
    underline-position="10"
    unicode-range="U+1005-E9AA"
  />
<missing-glyph 
 />
    <glyph glyph-name=".notdef" 
 />
    <glyph glyph-name=".null" horiz-adv-x="0" 
 />
    <glyph glyph-name="nonmarkingreturn" horiz-adv-x="341" 
 />
    <glyph glyph-name="ok-circle" unicode="&#x1005;" 
d="M516 -63q-91 0 -175 35q-81 34 -143 96.5t-96 143.5q-35 83 -35 174.5t35 175.5q34 80 96 142.5t143 96.5q84 35 175.5 35t174.5 -35q81 -34 143 -96.5t97 -142.5q35 -84 35 -175.5t-35 -174.5q-35 -81 -97 -143.5t-143 -96.5q-83 -35 -175 -35zM516 775
q-165 -4 -274.5 -114t-113.5 -274q4 -165 113.5 -275t274.5 -114q165 4 274.5 114t113.5 275q-4 164 -113.5 274t-274.5 114zM435 133l-226 225l80 80l146 -146l308 308l80 -79z" />
    <glyph glyph-name="close" unicode="&#x1006;" 
d="M783 701l-271 -271l-271 271q-8 8 -18.5 8t-18.5 -8t-8 -18t8 -18l271 -272l-271 -271q-8 -8 -8 -18.5t8 -18t18.5 -7.5t18.5 7l271 272l271 -272q8 -7 18.5 -7t18.5 7.5t8 18t-8 18.5l-271 271l271 272q8 8 8 18t-8 18t-18.5 8t-18.5 -8z" />
    <glyph glyph-name="close-fill" unicode="&#x1007;" 
d="M512 822q-167 -4 -278.5 -115.5t-115.5 -278.5q4 -168 115.5 -279.5t278.5 -115.5q167 4 278.5 115.5t115.5 279.5q-4 167 -115.5 278.5t-278.5 115.5zM702 271q6 -6 6 -14.5t-6 -14.5t-14.5 -6t-14.5 6l-161 161l-161 -161q-6 -6 -14.5 -6t-14.5 6t-6 14.5t6 14.5
l161 161l-161 161q-6 7 -6 15t6 14t14.5 6t14.5 -6l161 -161l161 161q6 6 14.5 6t14.5 -6t6 -14t-6 -15l-161 -161z" />
    <glyph glyph-name="star" unicode="&#xe600;" 
d="M750 -84q-24 0 -45 11l-193 104l-192 -104q-24 -12 -50.5 -10.5t-49 16.5t-33 39.5t-5.5 50.5l37 225l-162 163q-19 19 -25 44t2.5 50t28.5 41.5t47 20.5l221 33l96 199q12 25 34.5 39t50.5 14t50.5 -14t34.5 -39l96 -199l221 -33q27 -4 47 -20.5t28.5 -41.5t2.5 -50
t-25 -44l-162 -163l37 -225q5 -26 -5.5 -50.5t-32.5 -39.5q-25 -17 -54 -17zM512 92q7 0 13 -4l206 -111q10 -5 20.5 -4.5t19.5 6.5q18 13 15 35l-40 239q-2 15 8 25l173 173q15 16 8 36t-29 24l-236 35q-15 2 -22 15l-102 214q-5 9 -14 14.5t-20 5.5t-20 -5.5t-14 -14.5
l-102 -214q-7 -13 -22 -15l-236 -35q-10 -2 -18 -8.5t-12 -15.5q-6 -20 9 -36l173 -173q10 -10 8 -25l-40 -239q-3 -21 15 -35q9 -6 19.5 -6.5t20.5 4.5l206 111q6 4 13 4zM200 439q-11 1 -14 12q-1 6 2.5 10.5t9.5 5.5l10 2q6 1 10.5 -2.5t5.5 -9.5t-2.5 -10.5t-9.5 -5.5z
M253 448q-11 0 -14 11q-1 6 2 11t9 6l154 30l58 133q2 5 7.5 7t11 0t7.5 -7.5t0 -11.5l-61 -140q-3 -6 -10 -8z" />
    <glyph glyph-name="download-circle" unicode="&#xe601;" 
d="M511 828q-189 -5 -314 -130t-130 -313q5 -189 130 -314t314 -130q188 5 313.5 130t129.5 314q-4 188 -129.5 313t-313.5 130zM511 -30q-176 4 -293 121t-122 294q5 176 122 293t293 121q176 -4 293 -121t121 -293q-4 -177 -121 -294t-293 -121zM663 352l-125 -106v324
q-1 12 -8.5 19.5t-19 7.5t-19 -7.5t-7.5 -19.5v-325l-126 107q-8 8 -19 8t-19 -8t-8 -19t8 -19l170 -161q9 -9 20.5 -9t20.5 9l170 161q8 8 8 19t-8 19t-19 8t-19 -8z" />
    <glyph glyph-name="right" unicode="&#xe602;" 
d="M284 722l57 59l399 -397l-399 -397l-57 59l336 338z" />
    <glyph glyph-name="left" unicode="&#xe603;" 
d="M740 722l-57 59l-399 -397l399 -397l57 59l-336 338z" />
    <glyph glyph-name="top" unicode="&#xe604;" 
d="M812 153l-300 173l-300 -173l300 604zM265 209l247 143l248 -143l-248 499zM372 138v-126h-16v126h-46v15h107v-15h-45zM507 155q40 0 50 -12t10 -58q0 -51 -10 -62.5t-50.5 -11.5t-50 11.5t-9.5 60.5v23q0 28 12.5 38t47.5 11zM507 141q-34 0 -39.5 -7.5t-5.5 -51
t5.5 -51t39 -7.5t39 7.5t5.5 51.5v22q0 23 -7.5 29.5t-36.5 6.5zM608 12v141h65q24 0 32.5 -9t8.5 -34t-9 -33.5t-34 -8.5h-47v-56h-16zM624 81h38q24 0 30.5 5t6.5 22q0 21 -4.5 26.5t-21.5 5.5h-49v-59z" />
    <glyph glyph-name="ok" unicode="&#xe605;" 
d="M960 640l-45 45l-544 -512l-262 281l-45 -44l294 -327l7 7l6 -7z" />
    <glyph glyph-name="chat" unicode="&#xe606;" 
d="M133 415q3 160 109.5 266.5t269.5 110.5q164 -4 272.5 -110.5t112.5 -266.5q-2 -136 -82 -235t-208 -132l-116 -51v41q-154 14 -254.5 119t-103.5 258zM84 415q3 -163 106 -277t263 -139l-6 -40q-3 -22 -1 -25q6 2 68 28l122 51q134 42 218 149.5t86 252.5
q-4 178 -125 296t-303 123q-182 -5 -303 -123t-125 -296zM341 277q18 -32 63.5 -53.5t106.5 -21.5t107 21t65 52l-28 12q-16 -24 -53.5 -41t-89 -17t-89.5 17.5t-54 42.5z" />
    <glyph glyph-name="help" unicode="&#xe607;" 
d="M690 742q-41 31 -89 43.5t-106 12.5q-90 1 -151 -39q-45 -30 -66.5 -83.5t-21.5 -133.5h154q-1 22 0.5 44t13.5 42.5t31 33.5t49 13t48.5 -9t33.5 -27q24 -32 23 -72q0 -17 -7.5 -32.5t-18.5 -30.5q-11 -16 -30 -30q-4 -2 -45 -31t-67 -66q-16 -26 -23 -58.5t-8 -71.5
q-1 -3 1.5 -7t12.5 -5h124q8 1 11 5t3 8q0 15 2 32.5t4 26.5q10 31 40 54l41 29q29 22 49.5 40t31.5 32q17 23 27.5 51.5t10.5 62.5q-1 109 -78 166zM484 156q-40 0 -67 -24t-28.5 -67t24.5 -68t66.5 -26.5t67.5 22.5t28 66.5t-24.5 68.5t-66.5 28z" />
    <glyph glyph-name="add-circle-fine" unicode="&#xe608;" 
d="M510 -61q-190 5 -316 131t-131 316q5 190 131 316t316 131q190 -5 316 -131t131 -316q-5 -190 -131 -316t-316 -131v0zM510 812q-181 -4 -301.5 -124.5t-125.5 -301.5q5 -182 125.5 -302t301.5 -125q181 5 301.5 125t125.5 302q-5 181 -125.5 301.5t-301.5 124.5v0z
M528 153h-36v215h-214v36h214v214h36v-214h214v-36h-214v-215zM528 153z" />
    <glyph glyph-name="release" unicode="&#xe609;" 
d="M991 829q-5 2 -11 2q-11 -1 -19 -5.5t-9 -5.5l-447 -225q-388 -195 -464 -234q-13 -7 -20 -18t-6 -23q2 -21 23 -28l295 -93l17 50l-254 80l780 406l-436 -494q-30 -33 -29 -71v-209q1 -10 8.5 -17t18 -7t18 7t8.5 17l1 97q0 86 -1 108q0 10 3.5 19t7.5 14l466 528
l-128 -637q-2 -5 -4 -4l-287 86l-17 -50l290 -88q7 -2 15 -2q21 0 36 12.5t19 34.5l143 708q2 10 0.5 21.5t-17.5 20.5z" />
    <glyph glyph-name="list" unicode="&#xe60a;" 
d="M618 734h-397q-13 0 -21.5 -9t-9.5 -22v-638q1 -13 9.5 -22t21.5 -9h582q13 0 21.5 9t9.5 22l-1 476zM804 541h-184v165zM813 65q-1 -10 -10 -11h-582q-9 1 -10 11v638q1 10 10 11h378v-193h214v-456zM298 482h55v-55h-55v55zM400 468h323v-26h-323v26zM298 342h55v-55
h-55v55zM400 328h323v-27h-323v27zM298 200h55v-55h-55v55zM400 185h323v-26h-323v26zM881 53z" />
    <glyph glyph-name="about" unicode="&#xe60b;" 
d="M514 835q-192 -5 -319.5 -132.5t-132.5 -319.5q5 -192 132.5 -319.5t319.5 -132.5q192 5 319.5 132.5t132.5 319.5q-5 192 -132.5 319.5t-319.5 132.5zM514 -20q-171 4 -284.5 118t-118.5 285q5 171 118.5 284.5t284.5 118.5q171 -5 285 -118.5t118 -284.5
q-4 -171 -118 -285t-285 -118zM514 594q-14 -16 -14 -38q0 -18 11.5 -30t29.5 -12q7 -1 16.5 2.5t19.5 13.5q14 17 14 38q0 18 -12.5 30.5t-31 11.5t-33.5 -16zM549 293q-18 -17 -26 -23q2 11 8.5 35.5t19 67t16 57t2.5 16.5q0 13 -10 22q-22 17 -69 -8q-25 -14 -54 -47
l-11 -11l35 -27l29 28q-39 -129 -39 -164q0 -16 10 -26.5t25 -11t36 11.5q19 11 59 49l11 10l-31 31z" />
    <glyph glyph-name="face-smile-fine" unicode="&#xe60c;" 
d="M512 853q-190 -5 -316.5 -131.5t-131.5 -316.5q5 -190 131.5 -316t316.5 -131q190 5 316 131t131 316q-5 190 -131 316.5t-316 131.5zM512 -5q-175 4 -290.5 120t-120.5 290q5 174 120.5 290t290.5 121q174 -5 289.5 -121t120.5 -290q-5 -174 -120.5 -290t-289.5 -120z
M724 304q-7 2 -14 -1t-9 -11q-23 -60 -74 -96t-115.5 -36t-115.5 36t-73 97q-3 7 -10 10.5t-14.5 1t-10.5 -9.5t-1 -14q27 -73 87.5 -115.5t137 -42.5t137 42.5t87.5 114.5q2 7 -1 14t-11 10zM302 515q1 -19 13.5 -31.5t31.5 -12.5t31.5 12.5t12.5 31.5t-12.5 32t-31.5 13
t-31.5 -13t-13.5 -32v0zM631 515q1 -19 13.5 -31.5t31.5 -12.5t31.5 12.5t12.5 31.5t-12.5 32t-31.5 13t-31.5 -13t-13.5 -32v0z" />
    <glyph glyph-name="picture-fine" unicode="&#xe60d;" 
d="M959 84h-893v638h893v-638zM98 116h829v574h-829v-574zM649 419h-2q-37 1 -61.5 25.5t-25.5 61.5v2q1 37 25.5 61t61.5 25h2q37 -1 61 -25t25 -61v-2q-1 -37 -25 -61.5t-61 -25.5zM647 563q-24 -1 -39 -16.5t-16 -38.5v-2q1 -24 16 -39t39 -16h2q23 1 38.5 16t16.5 39v2
q-1 23 -16.5 38.5t-38.5 16.5h-2zM91 182l-23 22l275 279l22 -22zM605 216l-265 265l23 22l264 -265zM619 203l-23 22l168 171l23 -22zM926 223l-167 167l22 22l167 -167z" />
    <glyph glyph-name="log" unicode="&#xe60e;" 
d="M828 700q-64 64 -145 97.5t-171.5 33.5t-171.5 -33.5t-145 -97.5t-97.5 -145t-33.5 -171q0 -66 18.5 -128t53.5 -116q8 -11 20 -13.5t23 4.5t13.5 19t-3.5 24q-31 47 -47 100t-16 110q4 163 113 272t273 113q163 -4 272 -113t113 -272q-4 -164 -113 -272.5t-272 -112.5
q-53 0 -103.5 14t-96.5 41q-11 6 -23 3t-19 -14t-4 -23t14 -19q53 -32 111.5 -48.5t120.5 -16.5q90 1 171 34.5t145 97t97.5 145t33.5 171.5t-33.5 171t-97.5 145zM494 690q-16 0 -27.5 -11t-11.5 -28v-284v-4q2 -15 13 -24.5t27 -9.5v0h224q16 1 27.5 12t11.5 28t-11.5 28
t-27.5 11h-185v243q-1 17 -12 28t-28 11z" />
    <glyph glyph-name="menu-fill" unicode="&#xe60f;" 
d="M512 834q-191 -5 -318 -132t-132 -318q5 -191 132 -318t318 -132q191 5 318 132t132 318q-5 191 -132 318t-318 132zM266 590h492v-34h-492v34zM758 178h-492v34h492v-34zM140 367v34h744v-34h-744z" />
    <glyph glyph-name="cols" unicode="&#xe610;" 
d="M128 448h384v384h-384v-384zM192 768h256v-256h-256v256zM576 832v-384h384v384h-384zM896 512h-256v256h256v-256zM192 384h64v-384h-64v384zM384 384h64v-384h-64v384zM640 384h64v-384h-64v384zM832 384h64v-384h-64v384z" />
    <glyph glyph-name="reply-fill" unicode="&#xe611;" 
d="M508 836q93 1 175 -34t144 -95t98 -141.5t37 -174.5q1 -88 -30.5 -166t-87.5 -137.5t-131 -98.5t-162 -48q-23 -3 -48.5 -5.5t-56.5 -3.5t-69.5 0t-86.5 7q-107 10 -158.5 26.5t-41.5 18.5q54 9 93 29q21 12 17.5 33t-20.5 39q-52 57 -84.5 133.5t-34.5 164.5
q-1 93 34 175t95.5 143.5t142.5 97.5t175 37zM708 385q0 -27 18 -45.5t45 -18.5t46 18.5t19 45.5t-19 45.5t-46 18.5t-45 -18.5t-18 -45.5zM451 385q0 -27 19 -46.5t46.5 -19.5t46.5 19.5t19 47t-19 46.5t-46.5 19t-46.5 -19t-19 -47zM197 386q0 -27 18.5 -46t46 -19
t46.5 19t19 46t-19 46t-46.5 19t-46 -19t-18.5 -46z" />
    <glyph glyph-name="friends" unicode="&#xe612;" 
d="M672 766q6 -24 7 -47.5t1 -47.5q-1 -13 -4 -43.5t-2 -46.5q2 -11 4 -16l7 -13q7 -16 6.5 -36t-3.5 -36q-2 -10 -5 -20.5t-8.5 -18t-14 -11t-13.5 -12.5q-7 -14 -7 -30.5t-3 -31.5q-6 -15 -14.5 -23.5t-10.5 -28.5l25 -4q6 -15 16.5 -36t22.5 -31l39 -11q34 -15 71 -31
l71 -32q32 -12 63 -25t43 -46l2 -69q1 -43 1 -76h-908q0 33 1 76l1 69q13 33 43.5 46t63.5 25l71 32q36 16 71 31l39 11q12 10 22.5 31t16.5 36l19 5q-4 17 -12 24.5t-13 19.5l-7 78q-1 -1 -9 1t-11 3q-17 15 -21 49.5t-5 57.5q0 9 6 18.5t4 26.5q-18 99 3.5 161.5
t68.5 78.5q32 16 84 26t107 -22l18 -18l29 -5q11 -8 17.5 -22.5t6.5 -15.5z" />
    <glyph glyph-name="group" unicode="&#xe613;" horiz-adv-x="1449" 
d="M1383 -40l-3 26l-7 31l-10 30l-14 31l-14 23l-20 23l-22 18l-30 17l-22 10l-58 14l-25 10l-87 40l-23 14v83l10 11l9 16l7 16l12 43l2 18l4 -1l6 1l6 4l5 9l4 11l2 14l3 24l1 21l-1 18l-4 11l-7 4l-4 -1l3 24l3 28l1 25v21l-3 18l-6 19l-8 16l-11 19l-12 16l-15 12
l-19 12l-23 11l-20 5l-24 4l-23 1l-24 -4l-23 -8l-21 -9l-17 -11l-17 -15l-16 -17l-14 -20l-10 -22l-6 -25l-1 -32l7 -68h-8l-6 -7l-1 -13l1 -30l4 -34l3 -17l6 -10l10 -5l6 1l4 -28l4 -16l6 -18l9 -18l18 -24l-1 -85l8 -3l12 -3l35 -13l9 -5l12 -5l26 -15l24 -18l12 -11
l23 -29l13 -17l10 -21l18 -43l5 -19l8 -43l2 -27l1 -18l-1 -16l-4 -13l-7 -13l-8 -9l-15 -8h309l14 7l11 11l7 12l2 15zM439 816l-18 -19l-15 -22l-11 -24l-7 -28l-1 -35l8 -75h-10l-6 -7l-1 -14l1 -33l5 -38l3 -19l6 -10l11 -6l7 1l4 -30l5 -18l7 -20l9 -20l20 -26l-1 -93
l-15 -10l-34 -16l-35 -16l-29 -13l-22 -10l-25 -8l-26 -5l-25 -6l-26 -11l-24 -12l-21 -15l-24 -25l-17 -24l-13 -25l-11 -25l-10 -30l-9 -43l-3 -23v-20l3 -21l11 -14l15 -10l20 -2h861l15 8l13 12l7 13l2 16l-2 22l-3 28l-8 34l-11 33l-16 34l-15 25l-22 25l-24 20l-33 19
l-24 11l-64 16l-27 10l-96 45l-26 14v92l11 12l11 18l8 17l12 47l3 20l4 -1l7 1l6 5l6 10l4 12l3 15l2 27l2 23l-2 19l-4 13l-8 4l-4 -1l4 26l3 31l1 28v22l-4 21l-6 20l-9 18l-12 21l-13 17l-16 13l-21 13l-26 13l-22 5l-26 5h-26l-26 -4l-25 -9l-23 -9l-19 -13z" />
    <glyph glyph-name="set-fill" unicode="&#xe614;" 
d="M917 445l-70 11q-14 3 -26.5 12t-17 22t-8 39.5t4.5 40.5l42 57q8 12 7 26.5t-11 25.5l-31 31q-11 10 -25.5 11t-26.5 -7l-57 -42q-12 -9 -27.5 -11t-27.5 4t-33.5 22.5t-25.5 31.5l-11 70q-2 14 -13.5 23.5t-25.5 10.5h-44q-14 -1 -25.5 -10.5t-13.5 -23.5l-11 -70
q-3 -14 -12 -26.5t-22 -17t-39.5 -8t-40.5 4.5l-57 42q-12 8 -26.5 7t-25.5 -11l-31 -31q-10 -11 -11 -25.5t7 -26.5l42 -57q9 -12 11 -27.5t-4 -27.5t-22.5 -33.5t-31.5 -25.5l-70 -11q-14 -2 -23.5 -13.5t-10.5 -25.5v-44q1 -14 10.5 -25.5t23.5 -13.5l70 -11
q14 -3 26.5 -12t17 -22t8 -39.5t-4.5 -40.5l-42 -57q-8 -12 -7 -26.5t11 -25.5l31 -31q11 -10 25.5 -11t26.5 7l57 42q12 9 27.5 11t27.5 -4t33.5 -22.5t25.5 -31.5l11 -70q2 -14 13.5 -23.5t25.5 -10.5h44q14 1 25.5 10.5t13.5 23.5l11 70q3 15 12 27t22 16.5t39.5 8
t40.5 -4.5l57 -42q12 -8 26.5 -7t25.5 11l31 31q10 11 11 25.5t-7 26.5l-42 57q-9 12 -11 27t4 27.5t22.5 34t31.5 25.5l70 11q14 2 23.5 13.5t10.5 25.5v44q-1 14 -10.5 25.5t-23.5 13.5zM512 210q-74 2 -123 51t-51 123q2 74 51 123t123 51q74 -2 123 -51t51 -123
q-2 -74 -51 -123t-123 -51zM512 384zM407 384q1 -45 30.5 -74.5t74.5 -30.5q45 1 74.5 30.5t30.5 74.5q-1 45 -30.5 74.5t-74.5 30.5q-45 -1 -74.5 -30.5t-30.5 -74.5z" />
    <glyph glyph-name="search" unicode="&#xe615;" 
d="M439 121q-74 0 -142 28q-65 28 -115.5 78.5t-78.5 115.5q-29 68 -29 142.5t29 142.5q28 65 78.5 115.5t115.5 78.5q68 29 142.5 29t141.5 -29q66 -28 116.5 -78.5t78.5 -115.5q28 -68 28 -142.5t-28 -142.5q-28 -65 -78.5 -115.5t-116.5 -78.5q-67 -28 -142 -28zM439 797
q-132 -3 -220 -91t-92 -220q4 -133 92 -221t220 -91q133 3 221 91t91 221q-3 132 -91 220t-221 91zM891 -49q-34 1 -59 24l-157 153l37 38l158 -153q8 -8 20.5 -8t21 8.5t8.5 21t-8 20.5l-153 158l38 37l153 -157q23 -25 23 -59t-24 -58t-58 -25zM281 327q-32 32 -49 72.5
t-16.5 86t17 86t48.5 72.5l38 -38q-50 -52 -50 -120.5t50 -120.5z" />
    <glyph glyph-name="circle-dot" unicode="&#xe617;" 
d="M513 831q-190 -5 -316.5 -131.5t-131.5 -317.5q5 -190 131.5 -316.5t316.5 -131.5q191 5 317.5 131.5t130.5 316.5q-4 191 -130.5 317.5t-317.5 131.5zM513 -7q-165 5 -275 114.5t-114 274.5q4 166 114 275.5t275 114.5q165 -5 275 -114.5t114 -275.5
q-4 -165 -114 -274.5t-275 -114.5zM513 382zM169 382q0 -93 45.5 -171.5t126.5 -125.5t172 -47t172 47t126.5 125.5t45.5 172t-45.5 172t-126.5 125.5t-172 47t-172 -47t-126.5 -125.5t-45.5 -172.5z" />
    <glyph glyph-name="up" unicode="&#xe619;" 
d="M514 539l384 -384q10 -9 22 -9t22 9.5t10 22t-10 22.5l-403 403q-5 5 -12.5 9t-13 4t-13 -1t-12.5 -5l-410 -410q-9 -10 -9 -22.5t9.5 -22t22 -9.5t22.5 9z" />
    <glyph glyph-name="down" unicode="&#xe61a;" 
d="M888 620q13 12 29 12t28 -12v0q12 -12 12 -28t-12 -29l-406 -405q-12 -12 -28 -12t-28 12v0q-12 12 -12 28t12 28zM539 214q11 -12 11 -28t-11 -28v0q-13 -12 -29 -12t-28 12l-406 405q-11 13 -11 29t11 28v0q13 12 29 12t28 -12zM539 214z" />
    <glyph glyph-name="layim-theme" unicode="&#xe61b;" 
d="M959 539l-218 154h-101l-4 -10q0 -6 -30 -44t-95 -44q-53 1 -93 44q-16 17 -23.5 30.5l-7.5 13.5l-4 10h-100l-218 -154l104 -159l90 65l-19 -368h543l-19 368l90 -65zM730 507l21 -400h-478l20 400l-116 -84l-36 55l159 112l-19 31l-160 -112l-14 22l185 131h72
q3 -8 11 -19.5t19 -24.5q50 -52 117 -54h1q67 2 117 54q11 13 19 24.5t12 19.5h71l186 -131l-15 -22l-160 112l-19 -31l159 -112l-36 -55z" />
    <glyph glyph-name="404" unicode="&#xe61c;" 
d="M300 300l5 2q1 -5 27 -15l5 -13q16 -37 37 -112q22 8 61 -14l2 -4l-47 -36l18 -43q3 -8 -45 -30q-17 11 -26 7l-1 3q-17 38 -17 50l-4 -2l6 -15l-11 -4q-62 -24 -91 -8l-4 -1l-2 4q-11 25 32 182q18 7 23 31q20 13 32 18v0zM216 80q43 30 38 40q-1 3 1 10l-1 2
q-38 -32 -37 -34q-2 -14 -1 -18v0zM217 73l1 -2q17 2 28 6q2 0 20 15l-1 2q-11 -4 -15 6q-35 -23 -33 -27v0zM226 144l11 4q-2 -4 -16 -19q-3 -16 -1 -20q41 31 38 40l1 10l-4 -4l-9 -3l-1 2q17 6 21 37l-1 3q-38 -32 -37 -37zM232 173l1 -2l2 1q42 35 35 51q2 1 2 3h-3
q-43 -33 -36 -49q-2 -2 -1 -4v0zM241 212l1 -2q21 15 66 58l3 1l-7 15l1 5l-3 -1q-55 -49 -56 -57zM312 107l-36 -14q-2 0 -16 -11l1 -2l12 2l20 8q17 7 61 46l-6 15l-3 -1q-36 -25 -31 -37q2 -4 -2 -6v0zM268 265l1 -2q27 25 28 26l-1 2l-9 -4q-18 -7 -19 -22v0zM276 223
q24 -57 12 -90l-4 -29l27 11q-11 45 -32 106l-1 3zM279 232l7 -15q20 23 32 27l-3 9l-3 12l-2 -1q-32 -25 -31 -32v0zM293 195q36 25 29 41l-3 6h-2q-32 -29 -28 -39zM294 190l3 -6l3 -12l2 1l-1 -5l7 -15l32 27l-6 16q-14 -16 -21 -19l-2 -1q-1 3 20 26l-3 13l-1 3z
M307 148l3 -6l2 -12q36 26 34 31l-5 13q-18 -12 -34 -26v0zM356 132q-36 -27 -31 -37l1 -10q38 27 35 34q37 32 43 34l-1 2q-3 4 -14 4l-31 -31zM328 81l5 -10l-1 -5h2q35 22 33 28l-5 13zM334 61l5 -13q39 20 36 27l-4 11q-34 -23 -37 -25v0zM358 140l1 -4q8 3 11 24l-2 -1
q-5 -17 -10 -19v0zM732 256h4q-1 -4 14 -20v-11q-2 -33 -13 -96q19 -1 39 -30v-4l-48 -11l-2 -37q0 -8 -44 -8q-8 14 -16 14v2q2 34 6 43h-4l-1 -13l-9 1q-55 2 -70 24h-4v4q1 22 89 124q16 -1 29 16q19 3 30 2v0zM588 116v-2q13 -5 23 -5q1 0 20 5l1 2q-10 0 -10 9
q-34 -5 -34 -9v0zM590 121q42 8 43 17q0 3 4 7v2q-40 -11 -40 -13q-7 -9 -7 -13v0zM620 165h10q-3 -3 -18 -9q-9 -11 -9 -14q42 9 42 16l5 8l-4 -2h-8v2q15 -1 29 21v2q-39 -11 -40 -15zM671 110l-32 1q-2 0 -16 -3v-1l10 -3l17 -1q16 0 62 14l1 13l-2 1q-36 -7 -36 -17
q0 -4 -4 -4v0zM635 185v-2h2q44 12 45 27q2 -1 2 1h-2q-44 -9 -45 -24q-2 0 -2 -2v0zM686 207q-3 -50 -24 -70l-13 -20l24 -2q8 37 15 90v2h-2zM656 211v-2q21 5 70 21h2l1 13l2 4h-2q-58 -19 -62 -24zM670 68v-11q36 2 36 8v9q-32 -6 -36 -6v0zM673 85v-9l-2 -4h1
q34 5 35 10v11zM712 114q-36 -8 -36 -18l-3 -7q38 8 39 13q38 12 44 11v2q-1 4 -10 8l-34 -13v4zM682 142v-6l-3 -9q36 7 36 11l1 11q-17 -3 -34 -7v0zM688 177v-6l-3 -9h2l-2 -4l-1 -13l34 10l1 13q-16 -7 -22 -7h-2q0 3 24 13l3 13zM688 181q36 7 37 21v6h-2
q-34 -11 -34 -19zM692 213l-1 -13q23 10 34 9l1 8l2 9h-2q-32 -8 -34 -13v0zM695 241v-2q29 10 30 10v2h-7q-17 1 -23 -10v0zM716 119v-4q7 0 17 14l-2 1q-10 -11 -15 -11v0zM479 382q80 15 109 -24q15 -28 18 -45q18 -85 -53 -138q-19 -8 -30 -10q-48 -10 -96 33
q-14 25 -18 44q-20 96 46 133zM410 265q9 8 16 9q-15 -14 -14 -17q-1 -8 1 -14h2q36 24 35 30l-2 10q-7 -6 -12 -7l-1 4q16 4 14 30h-2q-34 -25 -37 -34q-1 -4 0 -11v0zM410 286q50 33 45 57q-45 -36 -44 -38q-2 -14 -1 -19v0zM413 316v-2q41 31 53 49q15 3 20 16h-2
q-55 -10 -71 -63v0zM414 235q4 -7 5 -14q29 23 35 24l-4 18q-9 -2 -36 -28v0zM422 220q3 -15 10 -15l27 22l-5 16q-25 -22 -32 -23v0zM433 199q7 -9 10 -8l4 1q17 15 25 17q-1 6 -10 15q-30 -22 -29 -25v0zM448 186l1 -3q4 1 12 -3q28 15 28 20q-9 2 -10 8q-18 -7 -31 -22v0
zM469 179l1 -2l15 1l12 2q4 1 18 10v2q-11 -2 -21 5zM476 249l5 -22q5 -21 29 -32l4 1q37 51 23 119l-3 12l-6 19l-6 -1q-6 -1 -31 2q-25 -46 -15 -98v0zM476 363l1 -2q16 -3 20 -2q21 15 23 23l-21 -2q-4 -1 -23 -17v0zM509 363l4 3q2 0 15 -10q15 20 24 21q-1 5 -23 5
q-21 -17 -20 -19v0zM512 185v-2l4 1q30 6 48 40q-14 -14 -52 -39v0zM522 198q57 36 54 53q3 8 2 11q-53 -40 -49 -55q-4 0 -7 -9v0zM529 352l7 -15l2 1q7 8 27 26v2q-8 8 -9 10h-4zM537 333l4 -9v-9l4 1q29 27 29 28l-1 3q-3 14 -7 13q-26 -26 -29 -27v0zM540 236
q41 30 39 39q3 11 2 15h-2l-35 -30q-5 -22 -4 -24v0zM542 307l3 -12l10 4q-11 -11 -10 -14q-1 -16 -1 -19q28 21 37 34l-3 12q-11 -10 -17 -11q12 17 18 18l-4 19q-31 -26 -33 -31v0zM307 569q-7 0 -12.5 -4.5t-7.5 -11.5q-3 -10 3 -20t27 -16q1 27 0.5 38.5l-0.5 11.5
q-5 2 -10 2v0zM710 537v-3q3 5 3 12q0 9 -6 14.5t-15 6.5q-5 0 -9 -3q11 0 19 -7.5t8 -19.5v0zM532 520q-2 14 -16.5 31t-16.5 18q0 -14 4.5 -28.5t7.5 -19.5q-6 -10 -9 -21l-4 -12q2 1 16.5 10.5t17.5 21.5v0zM489 507q4 1 4 5t-4 4t-4 -4t4 -5v0zM445 630q0 6 -1 11l-1 5
q-3 2 -28 -1t-36 -30q13 13 32.5 14.5t33.5 0.5v0zM621 615q-11 27 -36 30t-28 2l-2 -17q14 2 33.5 0t32.5 -15v0zM420 518q23 1 38 15t15 34.5t-15.5 34.5t-38 14t-38 -14t-15.5 -34.5t15.5 -34.5t38.5 -15v0zM420 614q21 -1 35.5 -14t14.5 -32.5t-14.5 -33t-36 -13.5
t-36 13.5t-14.5 33t14.5 32.5t36.5 14v0zM420 534q15 1 25 10t10 23t-10 23.5t-25.5 9.5t-25.5 -9.5t-10 -23.5t10 -23t26 -10v0zM435 552q4 4 6.5 1.5t-0.5 -6t-6 -1t0 5.5v0zM396 586q10 9 18 3q3 -3 2.5 -8t-4.5 -10q-9 -8 -18 -3q-3 4 -2.5 9t4.5 9v0zM584 518
q23 1 38.5 15t15.5 34.5t-15.5 34.5t-38.5 14t-38 -14t-15 -34.5t15 -34.5t38 -15v0zM584 614q22 -1 36.5 -14t14.5 -32.5t-14.5 -33t-36 -13.5t-36.5 13.5t-15 33t14.5 32.5t36.5 14v0zM584 534q16 1 26 10t10 23t-10 23.5t-25.5 9.5t-26 -9.5t-10.5 -23.5t10.5 -23
t25.5 -10v0zM600 552q3 4 6 1.5t-0.5 -6t-6 -1t0.5 5.5v0zM561 586q9 9 18 3q3 -3 2.5 -8t-4.5 -10q-10 -8 -18 -3q-3 4 -2.5 9t4.5 9v0zM957 382v0l-3 3l-2 1q-8 12 -23 26.5t-40 20.5v35q1 7 -5 8h-198l-1 28q19 2 31 13.5t12 28.5t-12.5 28.5t-32.5 13.5q-1 60 -3.5 102
t-3.5 48l-1 1q-3 4 -21 8q1 21 -12 47q1 -17 -10.5 -27t-15.5 -12h-1q3 6 -11 36t-77 62q-1 -33 -9.5 -54t-22.5 -32l-6 -1h1q-1 0 -1 -1q-8 -7 -23 -12.5t-42 -5.5q-20 0 -44 4q-6 1 -12 1q-7 0 -16 -3v0q-27 -6 -30 -10l-1 -1q0 2 -1.5 -23t-4.5 -128q-19 -1 -31.5 -13
t-12.5 -29t12 -28.5t31 -12.5l-1 -28h-181q-3 0 -6.5 -2.5t-3.5 -6.5v-97q-17 -1 -27 -5q-21 -8 -28.5 -24.5t-7.5 -35.5q0 -2 1 -4q-5 -9 -5.5 -18.5t0.5 -16.5q2 -12 5 -14q-3 -7 -2 -14t4 -13q6 -14 22 -10q-4 -7 -1.5 -13.5t12.5 -15.5q4 -2 11 4l15 12v-267
q1 -3 4 -4.5t7 -1.5h752q6 0 5 6v313q25 2 38 20q7 10 9 17q31 21 35.5 45t-14.5 52v0zM316 509q-17 0 -28.5 10.5t-11.5 26t12 26t30 10.5v3v-3h3v1q9 2 19 4q9 27 21 45t12.5 18.5t-4.5 19.5t-8 48q46 -63 140 -63.5t140 52.5q-4 -25 -8 -40l-5 -16q1 -1 13 -19t21 -45
q11 -1 19 -3v3h1q17 -1 29 -12t12 -26.5t-10 -26.5q-16 -10 -41 -10l2 -35h-356l1 32h-3zM127 463q0 3 3.5 6t6.5 3h742q6 -2 5 -9v-29l-3.5 0.5t-6.5 0.5l-33 -4q-16 -1 -28 -6h-637l-1 -2v-60q-15 8 -48 7v93zM821 -14h-640v297q16 6 15 22q0 12 -15 16v8q4 1 4 3l1 3
q10 16 -5 24v56h615q-4 -7 -5 -12q-3 -13 -2 -29l-91 -59q-2 0 -12.5 -9.5t-4.5 -22.5q9 -13 23 -11.5t28 10.5l27 17q18 11 37 24v-1l-3 -2q-8 -7 -4.5 -22t20.5 -19q2 -1 5.5 -0.5t3.5 1.5v-294h3zM178 271q-1 5 -5 8l5 2v-10zM178 323h-3l3 2v-2zM879 -66h-742
q-3 0 -6.5 2t-3.5 5v266q4 1 4 2l2 1q16 7 25 17t1 16h-2q8 3 13 8t5 13v-289l655 2v292q15 -15 35 -10q2 -5 8 -7.5t11 -2.5v-308q1 -7 -5 -7v0zM879 -66z" />
    <glyph glyph-name="layim-uploadfile" unicode="&#xe61d;" 
d="M915 663q-33 32 -78 32h-352l-132 104h-156q-40 -1 -66.5 -28t-27.5 -67l1 -603q0 -46 32 -78t78 -33h623q45 1 77 33t33 78v484q-1 46 -32 78zM197 758h142l131 -104h367q29 0 48.5 -19.5t20.5 -49.5v-119h-762v238q1 23 16 38.5t37 15.5zM837 31h-623q-30 1 -49.5 20.5
t-19.5 49.5v323h761v-323q-1 -30 -20.5 -49.5t-48.5 -20.5z" />
    <glyph glyph-name="layim-download" unicode="&#xe61e;" 
d="M187 77v582q23 -23 57 -24h560v-151h25v176h-585q-24 1 -40 17.5t-16 40.5t16 40t40 17h573v25h-573q-35 -1 -58 -24t-24 -58v-641q1 -32 22 -53.5t54 -22.5h226v25h-226q-22 1 -36.5 15.5t-14.5 35.5zM237 730h560v-25h-560v25zM686 428q-66 -1 -118.5 -37.5t-75.5 -99
t-5.5 -125t68.5 -104.5t116 -47t121.5 29.5t82.5 93.5t14 124q-16 73 -72 119t-131 47zM686 39q-58 1 -104 33t-66 87t-5 110t60 92t102 41t107 -26t72.5 -82t12.5 -110q-15 -64 -64 -104t-115 -41zM699 152v159h-25v-159l-69 69l-18 -18l99 -99l99 99l-18 18z" />
    <glyph glyph-name="add-circle" unicode="&#xe61f;" 
d="M675 413h-127v127q0 15 -10.5 25.5t-26 10.5t-25.5 -10.5t-11 -25.5v-127h-127q-15 -1 -25.5 -11t-10.5 -25.5t10.5 -26t25.5 -10.5h127v-127q1 -16 11 -26t25.5 -10t26 10t10.5 26v127h127q15 0 25.5 10.5t10.5 26t-10.5 25.5t-25.5 11v0zM511 831
q-192 -5 -320.5 -133.5t-133.5 -320.5q5 -193 133.5 -321t320.5 -133q193 5 321 133t133 321q-5 192 -133 320.5t-321 133.5v0zM511 -21q-168 5 -280.5 117t-116.5 281q4 168 116.5 280.5t280.5 116.5q169 -4 281 -116.5t117 -280.5q-5 -169 -117 -281t-281 -117v0zM511 -21
z" />
    <glyph glyph-name="set-sm" unicode="&#xe620;" 
d="M946 406q0 17 -8.5 28t-22.5 13l-86 15q-6 1 -10.5 4.5t-5.5 6.5l-12 30q-4 11 5 25l48 68q7 9 6 23t-11 25l-56 56q-8 7 -21 7t-22 -7l-72 -51l-6 -2.5t-14 0.5l-34 14l-3.5 4.5t-6.5 15.5l-14 82q-2 14 -13 22t-24 8h-75q-13 -1 -22.5 -10t-12.5 -20l-14 -84
q-2 -11 -6.5 -15l-4.5 -4l-30 -12q-7 -3 -13.5 -1.5t-16.5 9.5l-63 43q-14 10 -27.5 8t-22.5 -11l-51 -51q-11 -11 -10 -26t11 -29l41 -58q7 -10 9 -16t0 -11q-4 -11 -12 -28q-3 -8 -8.5 -11.5t-19.5 -5.5l-77 -13q-14 -3 -22.5 -14.5t-8.5 -27.5v-65q1 -35 39 -42l74 -12
q17 -3 22 -16l4 -10q2 -4 5.5 -12.5t3.5 -14.5t-9 -17l-46 -65q-8 -12 -6 -26t11 -23l49 -49q11 -11 25.5 -12t28.5 8l65 47q8 5 15.5 5t12.5 -2l22 -9q8 -4 11.5 -9.5t5.5 -14.5l13 -79q7 -32 41 -33h62q21 0 32 8.5t13 22.5l14 84q2 8 5 12t9 6l27 12q9 4 15 2t12 -8
l64 -45q13 -9 26.5 -7.5t25.5 12.5l49 48q13 13 12 27.5t-7 23.5l-50 71q-4 5 -4 12t2 12l12 25q5 11 18 13l84 15q16 3 23.5 14t7.5 26v66zM909 339q0 -5 -3 -8t-6 -4l-82 -14q-14 -3 -24 -10.5t-14 -17.5l-11 -27q-4 -11 -3.5 -22.5t6.5 -19.5l50 -71q6 -9 -1 -17l-48 -48
q-9 -8 -19 0l-25 18q-19 13 -39 27q-25 17 -49 6q-9 -4 -8 -3.5t-15 -6t-23 -19.5t-10 -29l-12 -70q-1 -11 -13 -11h-65q-11 -1 -15 12q-2 9 -6 33l-6 41q-3 15 -10 26t-15 15l-28 11q-16 6 -29 4.5t-22 -8.5l-65 -47q-5 -3 -10 -2.5t-8 2.5l-47 47q-8 9 0 20l41 58
q10 13 13 26.5t-3 27.5l-13 29q-6 13 -16.5 19t-21.5 7l-77 14q-12 3 -12 14v66q1 7 5 10t8 3l73 13q14 2 25.5 8.5t17.5 20.5l11 27q10 25 -7 50l-45 62q-9 10 1 19l47 47q8 7 18 1l64 -46q23 -16 49 -6l27 11q24 10 29 40l12 78q1 3 4 6.5t8 3.5h70q3 0 6.5 -2.5t4.5 -6.5
l15 -86q2 -10 10 -19.5t16 -13.5l31 -13q8 -3 19.5 -2t16.5 4l76 53q8 5 17 -3l48 -48q6 -6 1 -14l-48 -67q-15 -25 -5 -49l9 -22q4 -10 12.5 -19.5t21.5 -12.5l84 -14q12 -3 12 -13v-68zM527 573q-85 -2 -141.5 -58.5t-58.5 -141.5q2 -85 58.5 -141.5t141.5 -58.5
q85 2 141.5 58.5t58.5 141.5q-2 85 -58.5 141.5t-141.5 58.5zM527 208q-70 2 -116.5 48.5t-48.5 116.5q2 70 48.5 116.5t116.5 48.5q70 -2 116.5 -48.5t48.5 -116.5q-2 -70 -48.5 -116.5t-116.5 -48.5z" />
    <glyph glyph-name="file" unicode="&#xe621;" 
d="M887 599v-45v-523q0 -29 -19.5 -48.5t-48.5 -20.5h-614q-29 1 -48.5 20.5t-19.5 48.5v705q0 29 19.5 48.5t48.5 19.5h470q13 4 23 -5l183 -183q7 -7 6 -17zM660 531q-10 1 -16.5 7t-6.5 16v205h-409q-20 -1 -32.5 -13.5t-13.5 -32.5v-660q1 -19 13.5 -32t32.5 -13h568
q20 0 32.5 13t13.5 32v478h-182zM683 750v-173h159v14z" />
    <glyph glyph-name="screen-full" unicode="&#xe622;" 
d="M642 512l205 204l-1 -115q0 -8 5 -13t12 -5h13q7 0 12 4t5 11l1 182q1 8 -4 12.5t-12 4.5h-9l-171 1q-8 -1 -13 -6t-5 -12v-12q1 -9 6.5 -13.5t13.5 -4.5l113 -1l-205 -203q-7 -8 -7 -17.5t7 -16.5t16.5 -7t17.5 7v0zM383 319l-205 -204v116q0 7 -4.5 12t-12.5 5h-13
q-7 0 -12 -4t-5 -11l-1 -182q-1 -8 4 -12.5t12 -4.5h9l172 -1q8 1 13 6t5 12v12q-1 9 -7 13.5t-13 4.5l-113 1l205 203q7 8 7 17.5t-7.5 16.5t-17 7t-16.5 -7v0zM894 60v173q-1 7 -6 11t-12 4h-12q-8 0 -13 -5t-5 -12l1 -116l-205 204q-8 7 -17.5 7t-16.5 -7t-7 -16.5
t7 -17.5l204 -203l-112 -1q-8 0 -13.5 -4.5t-6.5 -13.5v-12q0 -7 5 -12t12 -6l181 1q7 0 12 4.5t4 12.5v9v0zM212 749l113 1q7 0 13 4.5t7 13.5v12q0 7 -5 12t-13 6l-181 -1q-7 0 -12 -4.5t-4 -12.5v-182q1 -7 6 -11t12 -4h13q8 0 12.5 5t4.5 12v116l205 -204q7 -7 16.5 -7
t17 7t7.5 16.5t-7 17.5zM212 749z" />
    <glyph glyph-name="triangle-r" unicode="&#xe623;" 
d="M293 728l427 -355l-427 -356v711z" />
    <glyph glyph-name="triangle-d" unicode="&#xe625;" 
d="M773 89zM890 575h-731l365 -365z" />
    <glyph glyph-name="engine" unicode="&#xe628;" 
d="M422 361h-236v46h236q9 31 33 50t57 20q40 -1 66 -27t26 -66t-26 -66t-66 -27q-33 1 -57 20t-33 50v0zM512 780q-168 -5 -279.5 -116.5t-116.5 -279.5q5 -168 116.5 -279.5t279.5 -116.5q118 2 210.5 61t142.5 158l102 -59l-23 -40l-62 36q-51 -79 -129 -130l35 -62
l-40 -23l-36 62q-81 -42 -177 -48v-71h-46v71q-96 6 -177 48l-36 -62l-40 23l36 62q-78 51 -130 130l-62 -36l-23 40l62 36q-42 81 -48 177h-71v46h71q6 96 48 177l-62 36l23 40l62 -36q52 79 130 130l-36 62l40 23l36 -62q81 42 177 48v71h46v-71q96 -6 177 -48l36 62
l40 -23l-36 -62q78 -51 130 -130l62 36l23 -40l-102 -59q-50 99 -142.5 158t-210.5 61v0z" />
    <glyph glyph-name="chart-screen" unicode="&#xe629;" 
d="M964 179v35l-37 -3v484h-236v70h-361v-70h-234v-481h-36v-35h433v-141h-91v-35h217v35h-90v141h435zM366 730h289v-35h-289v35zM365 333l-143 73l15 28l123 -64l174 160l127 -92l93 122l25 -19l-111 -147l-132 96z" />
    <glyph glyph-name="tabs" unicode="&#xe62a;" 
d="M310 524h-186q-13 -1 -22 -9.5t-9 -21.5v-187q0 -13 9 -21.5t22 -9.5h186q13 1 22 9.5t9 21.5v187q0 13 -9 21.5t-22 9.5zM295 306h-155q-13 0 -15 2t-1 14v155q-1 12 1 14t15 2h155q12 0 14 -2t1 -14v-155q1 -12 -1 -14t-14 -2zM419 353h481v31h-481v-31zM419 229h481
v31h-481v-31zM419 89h481v31h-481v-31zM419 493h481v31h-481v-31zM993 725h-16v124q0 14 -8.5 22.5t-22.5 8.5h-170q-13 0 -22 -8.5t-9 -22.5v-124h-140v124q0 14 -9 22.5t-22 8.5h-171q-13 0 -21.5 -8.5t-9.5 -22.5v-124h-124v124q0 14 -9 22.5t-22 8.5h-186
q-13 0 -22 -8.5t-9 -22.5v-946q0 -13 9 -22t22 -9h962q13 0 22 9t9 22v791q0 13 -9 22t-22 9zM993 -66q0 -13 -9 -22t-22 -9h-900q-13 0 -22 9t-9 22v884q0 14 9 22.5t22 8.5h124q13 0 22 -8.5t9 -22.5v-124h745q13 0 22 -9t9 -22v-729z" />
    <glyph glyph-name="fonts-strong" unicode="&#xe62b;" 
d="M199 848h355q106 0 158 -8.5t92.5 -36.5t68 -74.5t27.5 -104.5q0 -62 -33.5 -114.5t-90.5 -78.5q81 -23 124.5 -80t43.5 -134q0 -61 -28 -118t-77 -91.5t-121 -42.5q-45 -5 -216 -6h-303v889zM378 700v-206h118q105 0 130 3q46 6 72.5 32.5t26.5 68.5t-22.5 68t-67.5 31
q-27 3 -154 3h-103zM378 346v-236h167q97 0 123 5q40 7 65.5 35t25.5 75q0 40 -19.5 68t-56.5 40.5t-159 12.5h-146z" />
    <glyph glyph-name="chart" unicode="&#xe62c;" 
d="M953 316h-169l-105 123l-13 7l-6 1l-12 -4l-7 -6l-102 -352l-104 730l-9 13l-13 6h-8l-8 -3l-9 -9l-144 -516h-177q-11 -1 -18 -8t-7 -18t7 -18t18 -8h197q8 1 15 6t9 13l114 411l103 -724l2 -7l7 -10q2 -2 5 -3l2 -1l10 -2l8 2q3 1 5 2l3 2l7 9l119 416l80 -95l6 -5
l5 -2l189 -1q11 0 18.5 7t7.5 18t-7.5 18t-18.5 8z" />
    <glyph glyph-name="table" unicode="&#xe62d;" 
d="M305 344zM730 511zM596 638zM144 687v-602h737v602h-737zM420 300v129h185v-129h-185zM605 257v-129h-185v129h185zM605 601v-129h-185v129h185zM374 601v-129h-184v129h184zM190 429h184v-129h-184v129zM651 429h184v-129h-184v129zM651 472v129h184v-129h-184zM190 257
h184v-129h-184v129zM651 128v129h184v-129h-184z" />
    <glyph glyph-name="tree" unicode="&#xe62e;" 
d="M963 259q-14 80 -73 133q-34 31 -74 51t-83 34l-81 25q62 11 122 12.5t120 0.5q-47 65 -127 84q-40 11 -78 5t-74 -37q15 50 7 90t-46 71q-25 19 -55 23t-56 -8q43 -24 64.5 -61.5t29.5 -83.5q-34 51 -81.5 72.5t-106.5 13.5q-42 -6 -83 -17.5t-83 -22.5q24 -22 48 -28
q78 -16 155 -30q29 -5 56 -12.5t49 -28.5q-59 18 -117.5 21t-118.5 -12q-69 -19 -122.5 -52.5t-72.5 -72.5q35 17 71.5 18.5t73.5 -0.5q28 -2 56.5 -2t56.5 3q39 6 79 15l80 17q-73 -44 -124.5 -101.5t-34.5 -158.5q47 73 112 124t118 114q-24 -136 66 -238
q33 -35 63.5 -71.5t47.5 -84.5q9 107 -17 205t-81 192zM513 320q-20 -10 -30 -26.5t-12 -38.5q-10 -81 -22 -163q-5 -48 -8 -96h80q15 116 29 230q1 12 -4 23q-15 35 -33 71z" />
    <glyph glyph-name="upload-circle" unicode="&#xe62f;" 
d="M512 -128q218 5 362.5 149.5t149.5 362.5q-5 218 -149.5 362.5t-362.5 149.5q-218 -5 -362.5 -149.5t-149.5 -362.5q5 -218 149.5 -362.5t362.5 -149.5zM512 848q197 -5 328 -136t136 -328q-5 -197 -136 -328t-328 -136q-197 5 -328 136t-136 328q5 197 136 328t328 136z
M378 535h102v-478q0 -14 9 -23t23 -9t23 9t9 23v478h102q14 0 17.5 7t-4.5 18l-128 173q-8 10 -19 10t-19 -10l-128 -173q-8 -11 -4.5 -18t17.5 -7z" />
    <glyph glyph-name="templeate-1" unicode="&#xe630;" 
d="M320 384h-213q-28 -1 -46 -19t-18 -45v-213q0 -28 18 -46t46 -18h213q27 0 45 18t19 46v213q-1 27 -19 45t-45 19zM256 341v-256h-85v256h85zM85 107v213q1 9 7 15t15 6h42v-256h-42q-9 1 -15 7t-7 15zM341 107q0 -9 -6 -15t-15 -7h-43v256h43q9 0 15 -6t6 -15v-213z
M576 555h-341q-37 -1 -61 -25t-25 -61v-42h43v42q0 18 12.5 30.5t30.5 12.5h42v-96h22v96h213v-427h-85l-22 -42h171q36 1 60 25t25 60v341q-1 37 -25 61t-60 25zM619 128q-1 -18 -13 -30t-30 -13h-43v427h43q18 0 30 -12.5t13 -30.5v-341zM853 43q37 1 61 25t25 60v512
q-1 36 -25 60t-61 25h-512q-36 -1 -60 -25t-25 -60v-43h43v43q0 18 12 30t30 13h86v-86h21v86h299v-598h-43l-21 -42h170zM896 128q0 -18 -12.5 -30t-30.5 -13h-85v598h85q18 -1 30.5 -13t12.5 -30v-512z" />
    <glyph glyph-name="util" unicode="&#xe631;" 
d="M282 639q-20 -20 -49 -20t-49 20l-33 33l98 99l33 -33q20 -21 20 -49.5t-20 -49.5v0zM249 705v0l-33 -33q7 -7 16.5 -7t16.5 7t7 16.5t-7 16.5v0zM397 496l-147 143l32 33l147 -142zM751 134l-133 140l33 33l133 -140zM850 68q-17 -17 -38.5 -25.5t-44 -8.5t-43.5 8.5
t-38 25.5l-148 154l33 33l148 -154q21 -21 49 -20.5t49 21.5t21 49t-21 49l-147 154l33 33l147 -154q34 -36 34 -82.5t-34 -82.5v0zM802 468q-24 -23 -53.5 -35t-62 -12t-62 12t-53 35.5t-35.5 53t-12 62.5t12 62.5t36 52.5l42 43l33 -33l-43 -43q-33 -34 -33 -82t34 -82
t82 -34t82 33l42 43l33 -33zM844 511l-49 50l-17 -17q-27 -27 -65 -27v0q-39 0 -66 27.5t-27 66t27 65.5l16 17l-49 49l33 33l82 -82l-49 -50q-14 -14 -14 -33t14 -32.5t33 -13.5t33 13l49 50l82 -83zM234 129v47h46v-47h-46zM538 357l-92 91l33 33l92 -91zM304 101l174 240
l37 -28l-177 -244q-34 -33 -82 -33t-82 34t-34 82t34 82l243 178l28 -38l-239 -174q-19 -20 -19 -48.5t20 -48.5t48 -20.5t49 18.5v0z" />
    <glyph glyph-name="layouts" unicode="&#xe632;" 
d="M917 -103h-810q-18 0 -30 12t-12 30v698q0 18 12 30t30 12h810q18 0 30 -12t12 -30v-698q0 -18 -12 -30t-30 -12zM316 -61h601v363h-601v-363zM107 -61h167v363h-167v-363zM149 637q-18 0 -30 -12t-12 -29.5t12 -29.5t30 -12t29.5 12t11.5 29.5t-11.5 29.5t-29.5 12z
M274 637q-17 0 -29 -12t-12 -29.5t12 -29.5t29.5 -12t29.5 12t12 29.5t-12 29.5t-30 12zM400 637q-18 0 -29.5 -12t-11.5 -29.5t11.5 -29.5t29.5 -12t30 12t12 29.5t-12 29.5t-30 12zM875 512h-768v-168h810v168h-42z" />
    <glyph glyph-name="prev-circle" unicode="&#xe633;" 
d="M509 828q-190 -5 -316 -131t-131 -316q5 -189 131 -315.5t316 -131.5q189 5 315.5 131.5t130.5 315.5q-4 190 -130.5 316t-315.5 131zM509 -23q-172 4 -286 118.5t-119 285.5q5 172 119 286t286 118q171 -4 285.5 -118t118.5 -286q-4 -171 -118.5 -285.5t-285.5 -118.5z
M253 485q4 20 -14 25t-27 -13q-21 -63 -17 -126t31 -123q11 -17 27 -8t10 29q-24 53 -26 107.5t16 108.5zM599 248l-127 133l127 133q7 8 7 17t-7 16t-16.5 7t-16.5 -7l-148 -148q-7 -7 -7 -17.5t7 -18.5l148 -148q7 -7 16.5 -7t16.5 7t7 16.5t-7 16.5z" />
    <glyph glyph-name="carousel" unicode="&#xe634;" 
d="M1002 144v468q0 19 -11.5 33.5t-30.5 15.5h-64l1 7q0 24 -16.5 40.5t-41.5 16.5h-653q-24 -1 -40.5 -20t-17.5 -44v1h-61q-19 0 -32 -13t-13 -31v-468h-1q1 -19 14 -31.5t32 -12.5h61v-5q0 -25 16.5 -41.5t41.5 -16.5h653q25 -1 40.5 9t16.5 33h64q19 2 30.5 20.5
t12.5 38.5h-1zM128 149h-64v470h64v-470zM853 107q0 -6 -7.5 -13.5t-13.5 -8.5h-640q-6 1 -13.5 8.5t-7.5 13.5v554q0 6 5 12t10 7l6 3h640q6 -1 13.5 -8.5t7.5 -13.5v-554zM960 128h-64v491l61 2q3 0 3 0.5t0 -2.5v-470l2 -12q1 -8 -2 -9zM412 400q34 1 56.5 22.5
t22.5 54.5t-22.5 55t-56 22t-56 -22t-22.5 -55t22.5 -54.5t55.5 -22.5zM412 516q17 0 28.5 -11t11.5 -27.5t-11.5 -27.5t-28 -11t-28 11t-11.5 27.5t11.5 27.5t27.5 11zM786 457q-71 -19 -109 -58t-59 -76q-18 -29 -32.5 -44t-32.5 -15v0q-27 1 -45.5 9.5t-35.5 19.5t-38 20
t-50 9q-59 -5 -108 -47.5t-58 -56.5l-5 -51q1 -8 6.5 -13t13.5 -5h558q8 0 13.5 5t6.5 13v272q-1 9 -8.5 14.5t-16.5 3.5zM771 189h-518q20 24 57.5 57.5t73.5 37.5q20 -1 36 -8t31 -17q19 -11 42.5 -21.5t57.5 -11.5l3 -1q35 2 57 24t40.5 53t46 57.5t73.5 44.5v-215z" />
    <glyph glyph-name="code-circle" unicode="&#xe635;" horiz-adv-x="1025" 
d="M514 894q-218 -6 -362 -150t-149 -361q5 -217 149 -361.5t362 -149.5q217 5 361 149.5t149 361.5q-5 217 -149 361t-361 150zM514 -83q-199 5 -330.5 136.5t-136.5 329.5q5 198 136.5 329.5t330.5 136.5q198 -5 329.5 -136.5t136.5 -329.5q-5 -198 -136.5 -329.5
t-329.5 -136.5zM172 360l242 -104v45l-192 80l192 78v45l-242 -102v-42zM443 193h36l106 379h-36zM613 504v-45l192 -78l-192 -80v-45l242 104v42z" />
    <glyph glyph-name="water" unicode="&#xe636;" 
d="M862 34q-45 1 -75.5 32t-31.5 78q0 28 14 53l80 138v0l13 22l93 -158q1 -1 1 -2q14 -25 14 -53q-1 -47 -31.5 -78t-76.5 -32v0zM924 189v0l-62 114l-62 -114q-9 -19 -9 -40q0 -34 20.5 -56t51 -22t50.5 22t21 56q0 21 -10 40v0zM683 393q-69 2 -114.5 50t-47.5 121
q0 44 21 84l121 213v0l20 35l20 -35v0l119 -210l2 -4q20 -39 20 -83q-1 -73 -47 -121t-114 -50v0zM791 630v1l-108 193l-109 -194q-8 -15 -12.5 -27.5t-4.5 -29.5q1 -58 36.5 -100t89.5 -44q53 1 88.5 39t36.5 95q0 36 -17 67v0zM539 277q2 -3 3 -6q33 -61 33 -131
q-3 -113 -76.5 -189t-184.5 -79q-110 3 -183.5 79t-76.5 189q0 71 34 132l194 335v0l32 55l32 -55v0zM314 591l-194 -333l-1 -2q-30 -54 -31 -116q3 -98 67 -163.5t159 -68.5q96 3 160 68.5t66 163.5q0 62 -30 116z" />
    <glyph glyph-name="date" unicode="&#xe637;" 
d="M933 758h-167v57h-34v-57h-192v57h-34v-57h-217v57h-33v-57h-168q-9 0 -15.5 -6t-6.5 -16v-706q0 -10 6.5 -16t15.5 -7h845q10 1 16 7t6 16v706q0 10 -6 16t-16 6zM939 30q0 -6 -6 -6h-845q-5 0 -6 6v706q1 5 6 6h168v-56h33v56h217v-56h34v56h192v-56h34v56h167
q6 -1 6 -6v-706zM207 608h129v-94h-129v94zM459 608h129v-94h-129v94zM685 608h129v-94h-129v94zM207 433h129v-94h-129v94zM459 433h129v-94h-129v94zM685 433h129v-94h-129v94zM207 258h129v-94h-129v94zM459 258h129v-94h-129v94zM685 258h129v-94h-129v94z" />
    <glyph glyph-name="layer" unicode="&#xe638;" 
d="M96 724v-684h832v684h-832zM884 84h-744v406h744v-406z" />
    <glyph glyph-name="fonts-clear" unicode="&#xe639;" horiz-adv-x="1063" 
d="M945 197h-88l-116 -325h74l17 62h135l18 -62h77zM848 1l51 152l51 -152h-102zM210 490l-27 23l-171 -199q-13 -17 -12 -37t17.5 -34t36.5 -12.5t35 17.5l11 13q5 5 12 5.5t12.5 -4.5t5.5 -11.5t-4 -11.5q-15 -18 -18.5 -43.5t11.5 -40.5q18 -13 43 -6t40 24q5 5 12 5.5
t12 -4.5t5.5 -11.5t-3.5 -11.5q-15 -18 -18.5 -43.5t11.5 -40.5q17 -13 42.5 -6t40.5 24q5 5 12 5.5t12 -4.5t5.5 -11.5t-3.5 -11.5q-15 -18 -18.5 -43.5t11.5 -40.5q17 -13 42.5 -6t40.5 24q5 5 11.5 5.5t12 -4t6 -11.5t-4.5 -12q-14 -17 -17.5 -43t11.5 -41
q16 -14 36.5 -12.5t34.5 17.5l171 200l-8 37zM844 330l-164 141l250 244l10 10q28 34 25.5 75t-35.5 71q-34 27 -75 24.5t-71 -34.5h-1l-219 -290l-164 143q-12 9 -25.5 8t-23.5 -12l-126 -142l471 -407l30 -24l121 144q10 11 9 25t-12 24v0zM818 831q17 18 40 19.5
t41.5 -14.5t20.5 -39t-14.5 -41.5t-40 -20t-42 14.5t-20 39t14.5 42v0zM765 758q6 -26 27.5 -44.5t48.5 -19.5l-197 -199l-51 43zM776 300l-66 -81l-402 347l69 79q5 5 11.5 5.5t11.5 -3.5l374 -324q6 -5 6.5 -11.5t-4.5 -11.5v0z" />
    <glyph glyph-name="dialogue" unicode="&#xe63a;" 
d="M998 501q-4 139 -122 232t-294 97q-92 -1 -173.5 -30.5t-142.5 -83.5q57 12 116 14q44 23 95 35t105 12q152 -3 253.5 -81t105.5 -195q0 -48 -21 -93q11 -43 11 -87q33 41 50 86.5t17 93.5v0zM442 399q-23 -1 -39 -15.5t-16 -36t16 -36t39.5 -14.5t39.5 14.5t16 36
t-16 36t-40 15.5zM243 399q-23 -1 -39 -15.5t-16 -36t16 -36t39.5 -14.5t39.5 14.5t16 36t-16 36t-40 15.5zM641 399q-23 -1 -39 -15.5t-16 -36t16 -36t39.5 -14.5t39 14.5t15.5 36t-15.5 36t-39.5 15.5zM442 678q-176 -4 -294 -96.5t-122 -232.5q5 -136 106 -218.5
t226 -102.5l61 -79q9 -11 23 -11t24 11l60 79q125 20 226 103t107 218q-4 140 -122 232.5t-295 96.5zM715 174q-40 -34 -91 -57.5t-106 -32.5q-23 -4 -37 -21l-39 -50l-38 50q-14 17 -37 21q-55 9 -106 32.5t-91 57.5q-31 26 -58 69.5t-29 105.5q0 53 26 101t74 87
q53 40 119 61.5t140.5 22t140.5 -21.5t118 -62q49 -39 75 -87t26 -101q-2 -62 -29 -105.5t-58 -69.5z" />
    <glyph glyph-name="cellphone-fine" unicode="&#xe63b;" 
d="M732 896h-440q-74 -2 -124 -52t-52 -124v-672q2 -74 52 -124t124 -52h439q75 2 125 52t51 124v672q-1 74 -51 124t-124 52zM292 853h439q54 -1 91 -36t42 -89h-704q4 54 41 89t91 36zM865 49q-1 -57 -39 -94.5t-94 -39.5h-440q-56 2 -94 39.5t-39 94.5v45h706v-45z
M865 137h-706v549h706v-549zM512 -55q21 1 36 16t15 36t-15 36t-36 15t-36 -15t-15 -36t15 -36t36 -16z" />
    <glyph glyph-name="form" unicode="&#xe63c;" 
d="M314 437h396v-30h-396v30zM314 316h396v-30h-396v30zM314 195h264v-31h-264v31zM609 740q-6 33 -33 54t-64 21t-64 -21t-33 -54h-298v-788h790v788h-298zM446 670v18v37q1 26 19.5 43t46.5 17t46.5 -17t19.5 -43v-55l17 -8q49 -27 71 -73h-308q22 46 71 73zM874 -17h-724
v727h263v-22q-39 -21 -65 -54.5t-34 -75.5h396q-8 42 -34 75.5t-65 54.5v22h263v-727z" />
    <glyph glyph-name="loading" unicode="&#xe63d;" 
d="M512 757zM441 757q1 -30 21 -50t50 -20t50 20t20 50t-20 50t-50 20t-50 -20t-21 -50zM236 640zM167 640q1 -29 20.5 -48.5t48.5 -19.5t48.5 19.5t19.5 48.5t-19.5 48.5t-48.5 19.5t-48.5 -19.5t-20.5 -48.5zM126 382zM63 382q0 -17 8.5 -31t23 -22.5t31 -8.5t31 8.5
t23 22.5t8.5 31q-1 27 -18.5 44.5t-44 17.5t-44 -17.5t-18.5 -44.5zM228 101zM174 101q0 -23 15.5 -38.5t38.5 -15.5t38.5 15.5t15.5 38.5t-15.5 38t-38.5 15t-38.5 -15t-15.5 -38zM514 -17zM467 -17q0 -13 6.5 -23.5t17.5 -17t23.5 -6.5t23.5 6.5t17 17t6 23.5t-6 24
t-17 17t-23.5 6t-23.5 -6t-17.5 -17t-6.5 -24zM805 91zM771 91q0 -14 9.5 -23.5t24 -9.5t24 9.5t9.5 24t-9.5 24t-24 9.5t-24 -9.5t-9.5 -24.5zM936 383zM912 383q0 -10 6.5 -16.5t17 -6.5t17 6.5t6.5 17t-6.5 17t-17 6.5t-17 -6.5t-6.5 -17.5zM857 635zM840 635
q0 -10 8.5 -15t17 0t8.5 15t-8.5 14.5t-17 0t-8.5 -14.5z" />
    <glyph glyph-name="loading-1" unicode="&#xe63e;" 
d="M538 832q-11 -1 -18.5 -8t-7.5 -18t7.5 -18t18.5 -7q157 -4 261.5 -109t108.5 -262q1 -11 8 -18.5t18 -7.5t18 7.5t8 18.5q-5 179 -124 298t-298 124z" />
    <glyph glyph-name="circle" unicode="&#xe63f;" 
d="M512 848q-197 -5 -328 -136t-136 -328q5 -197 136 -328t328 -136q197 5 328 136t136 328q-5 197 -136 328t-328 136zM512 -16q-170 4 -283 117t-117 283q4 170 117 283t283 117q170 -4 283 -117t117 -283q-4 -170 -117 -283t-283 -117z" />
    <glyph glyph-name="delete" unicode="&#xe640;" 
d="M739 24h-452q-21 1 -35 14.5t-14 33.5v418q0 21 14 34.5t35 14.5h452q21 -1 35 -14.5t14 -34.5v-418q0 -20 -14 -33.5t-35 -14.5zM287 495q-7 -1 -7 -5v-418q0 -3 7 -4h452q7 1 7 4v418q0 4 -7 5h-452zM832 496h-640q-21 1 -35 13.5t-15 31.5v61q1 19 15 32t35 13h640
q21 0 35 -13t15 -32v-61q-1 -19 -15 -31.5t-35 -13.5zM185 541q0 -2 7 -3h640q7 1 7 3v61q0 2 -7 3h-640q-7 -1 -7 -3v-61zM601 605h-175q-21 1 -35 13.5t-14 31.5v11q0 19 14 31.5t35 13.5h175q21 -1 35 -13.5t14 -31.5v-11q0 -19 -14 -31.5t-35 -13.5zM419 650q1 -2 7 -2
h175q6 0 7 2v11q-1 2 -7 3h-175q-6 -1 -7 -3v-11zM404 431h-30q-6 0 -9.5 -4t-3.5 -9v-273q0 -5 3.5 -9t9.5 -4h30q6 0 9.5 4t3.5 9v273q0 5 -3.5 9t-9.5 4zM660 431h-31q-5 0 -9 -4t-4 -9v-273q0 -5 4 -9t9 -4h31q5 0 9 4t4 9v273q0 5 -4 9t-9 4zM532 431h-30q-6 0 -9.5 -4
t-3.5 -9v-273q0 -5 3.5 -9t9.5 -4h30q5 0 9 4t4 9v273q0 5 -4 9t-9 4z" />
    <glyph glyph-name="share" unicode="&#xe641;" 
d="M770 306q-39 0 -72 -17t-55 -46l-249 125q6 21 6 44.5t-7 46.5l248 124q22 -30 55.5 -48t73.5 -18q67 2 111.5 46.5t46.5 111.5q-2 67 -46.5 112t-111.5 46q-68 -1 -112.5 -46t-46.5 -112q0 -9 1 -18l-261 -131q-21 21 -49 32t-60 12q-67 -2 -111.5 -46.5t-46.5 -112.5
q2 -67 46.5 -111.5t111.5 -46.5q33 0 62 12.5t50 34.5l259 -130q-2 -11 -2 -22q2 -67 46.5 -111.5t112.5 -46.5q67 2 111.5 46.5t46.5 111.5q-2 67 -46.5 112t-111.5 46v0z" />
    <glyph glyph-name="edit" unicode="&#xe642;" 
d="M769 516l-126 126l63 63q17 16 38 16t38 -16l50 -50q16 -17 16 -38t-16 -38zM403 151l-126 125l343 340l126 -126zM176 47l77 205l125 -125z" />
    <glyph glyph-name="radio" unicode="&#xe643;" 
d="M513 384zM321 384q2 -82 56 -136t136 -56q81 2 135 56t57 135q-3 82 -57 136t-135 57q-82 -3 -136 -57t-56 -135zM512 848q-197 -5 -328 -136t-136 -328q5 -197 136 -328t328 -136q197 5 328 136t136 328q-5 197 -136 328t-328 136zM512 -16q-170 4 -283 117t-117 283
q4 170 117 283t283 117q170 -4 283 -117t117 -283q-4 -170 -117 -283t-283 -117z" />
    <glyph glyph-name="fonts-i" unicode="&#xe644;" 
d="M898 834v-64h-129l-321 -772h128v-64h-450v64h129l321 772h-128v64h450z" />
    <glyph glyph-name="speaker" unicode="&#xe645;" 
d="M587 755q-10 4 -18 -3l-259 -229h-148q-7 0 -12 -5t-5 -12v-268q0 -7 5 -12t12 -5h144q7 0 11.5 5t5.5 12v252q2 1 4 3l237 209v-653l-208 177q-39 34 -47 37q-4 -3 -10 -10.5t-9 -12.5q-1 -1 1 -3t15 -13l75 -63l188 -161q5 -4 11 -4q4 0 7 1q10 5 10 16v726
q0 11 -10 16v0zM290 255h-115v234h115v-234v0zM748 376q-1 -39 -24 -69t-61 -41h-4q-12 0 -16 12q-2 7 1.5 13t10.5 8q26 7 42.5 28t16.5 49t-16.5 49t-42.5 28q-7 2 -10.5 8t-1.5 13t7.5 10t12.5 2q38 -11 61 -41t24 -69v0zM865 376q-1 -68 -34.5 -124t-92.5 -89
q-4 -2 -8 -2q-9 0 -14 9q-4 6 -2 12.5t8 9.5q51 29 80 77.5t29 106.5t-29 106.5t-80 77.5q-6 3 -8 9.5t1 12.5t9.5 8t13.5 -1q59 -33 92.5 -89t34.5 -124v0z" />
    <glyph glyph-name="fonts-u" unicode="&#xe646;" 
d="M0 -49h945v-79h-945v79zM0 896h407v-62l-88 -6l-20 -18v-444q0 -127 54 -181.5t177 -54.5q114 0 165 58t51 190v427l-22 22l-91 7v62h322v-62l-86 -7l-20 -22v-440q0 -177 -88.5 -256t-285.5 -79q-103 0 -181 26.5t-122 77.5q-34 39 -48.5 90t-14.5 147v439l-20 18l-89 6
v62z" />
    <glyph glyph-name="align-center" unicode="&#xe647;" 
d="M992 448h-960q-14 0 -23 9t-9 23t9 23t23 9h960q14 0 23 -9t9 -23t-9 -23t-23 -9zM800 704q14 0 23 -9t9 -23t-9 -23t-23 -9h-576q-14 0 -23 9t-9 23t9 23t23 9h576zM992 832h-960q-14 0 -23 9t-9 23t9 23t23 9h960q14 0 23 -9t9 -23t-9 -23t-23 -9zM224 256q-14 0 -23 9
t-9 23t9 23t23 9h576q14 0 23 -9t9 -23t-9 -23t-23 -9h-576zM32 128h960q14 0 23 -9t9 -23t-9 -23t-23 -9h-960q-14 0 -23 9t-9 23t9 23t23 9zM224 -64h576q14 0 23 -9t9 -23t-9 -23t-23 -9h-576q-14 0 -23 9t-9 23t9 23t23 9z" />
    <glyph glyph-name="align-right" unicode="&#xe648;" 
d="M992 64h-960q-14 0 -23 9t-9 23t9 23t23 9h960q14 0 23 -9t9 -23t-9 -23t-23 -9zM992 256h-704q-14 0 -23 9t-9 23t9 23t23 9h704q14 0 23 -9t9 -23t-9 -23t-23 -9zM992 448h-960q-14 0 -23 9t-9 23t9 23t23 9h960q14 0 23 -9t9 -23t-9 -23t-23 -9zM992 640h-704
q-14 0 -23 9t-9 23t9 23t23 9h704q14 0 23 -9t9 -23t-9 -23t-23 -9zM992 832h-960q-14 0 -23 9t-9 23t9 23t23 9h960q14 0 23 -9t9 -23t-9 -23t-23 -9zM288 -64h704q14 0 23 -9t9 -23t-9 -23t-23 -9h-704q-14 0 -23 9t-9 23t9 23t23 9z" />
    <glyph glyph-name="align-left" unicode="&#xe649;" 
d="M992 448h-960q-14 0 -23 9t-9 23t9 23t23 9h960q14 0 23 -9t9 -23t-9 -23t-23 -9zM32 704h704q14 0 23 -9t9 -23t-9 -23t-23 -9h-704q-14 0 -23 9t-9 23t9 23t23 9zM992 832h-960q-14 0 -23 9t-9 23t9 23t23 9h960q14 0 23 -9t9 -23t-9 -23t-23 -9zM32 320h704
q14 0 23 -9t9 -23t-9 -23t-23 -9h-704q-14 0 -23 9t-9 23t9 23t23 9zM32 128h960q14 0 23 -9t9 -23t-9 -23t-23 -9h-960q-14 0 -23 9t-9 23t9 23t23 9zM32 -64h704q14 0 23 -9t9 -23t-9 -23t-23 -9h-704q-14 0 -23 9t-9 23t9 23t23 9z" />
    <glyph glyph-name="picture" unicode="&#xe64a;" 
d="M765 615q7 4 52 -11.5t51 -89.5q5 -6 -8.5 -49.5t-94.5 -50.5q-6 -4 -50 11t-49 89q-4 6 11.5 47.5t87.5 53.5zM968 771q4 1 27.5 -8.5t27.5 -43.5v-713q1 -3 -8.5 -25.5t-46.5 -26.5v817zM1 6q-1 -4 8 -26.5t45 -25.5h914v150h-99l-203 207l-153 -154l-209 257
l-205 -308l-45 -1l-2 613h-51v-712zM968 771h-914q-4 1 -26.5 -6.5t-26.5 -45.5h967v52z" />
    <glyph glyph-name="fonts-html" unicode="&#xe64b;" 
d="M194 416h-101v102h-46v-268h46v120h101v-120h46v268h-46v-102zM277 481h74v-231h46v231h74v37h-194v-37zM628 336l-47 182h-74v-268h46v212l46 -212h56l47 214l-1 -214h46v268h-74zM848 287v231h-46v-268h175v37h-129z" />
    <glyph glyph-name="link" unicode="&#xe64c;" 
d="M262 -122q-48 0 -94 19.5t-85 57.5q-77 81 -77 183t77 182l135 134l89 -89l-134 -135q-39 -40 -39 -89.5t39 -89.5q40 -38 89.5 -38t89.5 38l179 179q19 20 29 43t9.5 47t-9 47t-22.5 43l-71 64l90 89l70 -70q34 -34 52 -80t18.5 -99.5t-19 -99.5t-57.5 -80l-179 -179
q-35 -38 -83 -57.5t-97 -19.5zM467 205l-70 64q-77 80 -77 182t77 183l179 179q80 77 182 77t183 -77q77 -81 77 -183t-77 -182l-135 -134l-89 89l134 135q39 40 39 89.5t-39 89.5q-40 38 -91.5 38t-87.5 -38l-186 -173q-38 -40 -38 -89.5t38 -89.5l71 -71z" />
    <glyph glyph-name="unlink" unicode="&#xe64d;" 
d="M150 768q-13 -5 -18.5 -16t-2.5 -25q3 -8 9 -13l123 -123q7 -11 19.5 -14t24 4t14.5 19.5t-4 24.5q-4 6 -10 10l-123 123q-11 12 -28 10h-4zM406 831q-10 -3 -16 -12t-6 -20v-127q0 -14 9 -23t23 -9t23 9t9 23v127q0 14 -9 23t-22 10q-4 0 -7 -1h-4zM91 512
q-13 -3 -20.5 -13t-5.5 -24t12.5 -21.5t23.5 -5.5h123q14 0 23 9t9 22.5t-9 23t-23 9.5h-133zM795 320q-13 -2 -20.5 -10t-5.5 -22t12.5 -23.5t23.5 -8.5h123q14 1 23 12t9 25t-9 20.5t-23 6.5h-133v0zM598 127q-10 -3 -16 -12t-6 -20v-127q1 -14 10 -23t22.5 -9t22.5 9
t9 23v127q0 14 -9 23t-22 10q-3 0 -7 -1h-4v0zM726 192q-13 -5 -18.5 -16t-2.5 -25q3 -8 9 -13l123 -123q7 -11 19.5 -14t24 4t14.5 19.5t-4 24.5q-4 6 -10 10l-123 123q-11 12 -28 10h-4v0zM340 28q-37 0 -72 14t-64 42q-56 59 -56 136t56 136l88 87q10 10 22.5 10
t22.5 -9.5t10 -22.5t-10 -23l-88 -88q-37 -39 -37 -90t37 -91q40 -37 91 -37t90 37l88 88q10 10 23 10t22.5 -10t9.5 -22.5t-10 -22.5l-87 -88q-29 -28 -64 -42t-72 -14zM702 324q-13 0 -22.5 9.5t-9.5 22t9 22.5l88 88q38 39 38 90.5t-38 90.5q-39 37 -90 37t-91 -37
l-88 -88q-9 -9 -22 -9t-22.5 9.5t-9.5 22.5t9 23l88 87q59 56 135.5 56t135.5 -56q57 -59 57 -135.5t-57 -135.5l-87 -88q-10 -9 -23 -9z" />
    <glyph glyph-name="fonts-code" unicode="&#xe64e;" horiz-adv-x="1025" 
d="M270 626q-9 9 -21.5 9t-22.5 -9l-217 -217q-9 -9 -9 -21.5t9 -22.5l217 -217q10 -9 22.5 -9t21.5 9.5t9 22t-9 21.5l-195 195l195 195q9 10 9 22.5t-9 21.5zM1015 409l-217 217q-9 9 -21.5 9t-22 -9t-9.5 -21.5t9 -22.5l195 -195l-195 -195q-9 -9 -9 -21.5t9.5 -22
t22 -9.5t21.5 9l217 217q9 10 9 22.5t-9 21.5zM624 696v0q-12 4 -23.5 -1.5t-16.5 -17.5l-202 -558q-4 -12 1 -23.5t18 -16.5v0q12 -4 23.5 1.5t16.5 17.5l202 558q4 12 -1.5 23.5t-17.5 16.5z" />
    <glyph glyph-name="fonts-del" unicode="&#xe64f;" 
d="M928 448h-144q-2 42 -10 79t-19 66q-23 59 -99 115t-192 60h-208v-320h-160q-14 0 -23 -9t-9 -23t9 -23t23 -9h160v-320h230q116 4 182 57.5t86 109.5q28 76 31 153h143q14 0 23 9t9 23t-9 23t-23 9zM349 711h64q39 11 141.5 -22t125.5 -241h-331v263zM439 121h-90v263
h331q-22 -194 -115 -233t-126 -30z" />
    <glyph glyph-name="face-smile-b" unicode="&#xe650;" horiz-adv-x="1025" 
d="M512 -128q-103 0 -196 38.5t-166 111.5t-111.5 166t-38.5 196t38.5 196t111.5 166t166 111.5t196.5 38.5t196 -38.5t165.5 -111.5q150 -158 150 -362.5t-150 -361.5q-73 -73 -166 -111.5t-196 -38.5v0v0v0v0v0zM512 829q-90 0 -170.5 -33.5t-144 -97t-97 -144
t-33.5 -170.5t33.5 -170.5t97 -144t144 -97t170.5 -33.5t170.5 33.5t144.5 96.5q130 137 130 315t-130 315q-64 63 -144.5 96.5t-170.5 33.5v0v0v0v0v0zM330 244q0 -6 45.5 -48t136.5 -48q93 6 147 48t55 48q3 2 22.5 -5.5t22.5 -42.5q0 -7 -60.5 -56t-186.5 -56
q-125 7 -175 56t-48 56q-2 3 4 24t37 24v0v0v0v0zM363 549q-26 -1 -44 -18.5t-18 -44.5t18 -44.5t44.5 -17.5t44 17.5t17.5 44.5t-17.5 44.5t-44.5 18.5v0v0v0v0v0zM685 549q-27 -1 -44.5 -18.5t-17.5 -44.5t17.5 -44.5t44 -17.5t44 17.5t17.5 44.5t-17.5 44.5t-43.5 18.5v0
v0v0v0v0zM685 549z" />
    <glyph glyph-name="pause" unicode="&#xe651;" 
d="M512 -128q-218 5 -362 149.5t-150 362.5q6 218 150 362.5t362 149.5q218 -5 362 -149.5t150 -362.5q-6 -218 -150 -362.5t-362 -149.5zM512 864q-204 -5 -339.5 -140.5t-140.5 -339.5q5 -204 140.5 -339.5t339.5 -140.5q204 5 339.5 140.5t140.5 339.5
q-5 204 -140.5 339.5t-339.5 140.5zM640 181h-21q-18 1 -30.5 13t-12.5 30v320q0 18 12.5 30t30.5 13h21q18 -1 30 -13t13 -30v-320q-1 -18 -13 -30t-30 -13zM405 181h-21q-18 1 -30 13t-13 30v320q1 18 13 30t30 13h21q18 -1 30.5 -13t12.5 -30v-320q0 -18 -12.5 -30
t-30.5 -13z" />
    <glyph glyph-name="play" unicode="&#xe652;" 
d="M512 896q-217 -6 -361.5 -150.5t-150.5 -361.5q6 -217 150.5 -361.5t361.5 -150.5q217 6 361.5 150.5t150.5 361.5q-6 217 -150.5 361.5t-361.5 150.5v0v0zM512 -95q-205 5 -339.5 139.5t-139.5 339.5q5 205 139.5 339.5t339.5 139.5q205 -5 339.5 -139.5t139.5 -339.5
q-5 -205 -139.5 -339.5t-339.5 -139.5v0v0zM733 392l-340 197q-6 6 -12 0q-7 -1 -8 -8v-394q0 -3 2 -5l2 -3q6 -6 12 0l344 197q3 3 3.5 4t0.5 4q3 3 1.5 5.5t-5.5 2.5v0v0zM733 392z" />
    <glyph glyph-name="app" unicode="&#xe653;" 
d="M432 819h-376q-5 0 -8.5 -3.5t-3.5 -8.5v-376q0 -6 3.5 -9t8.5 -4h376q5 1 8.5 4t3.5 9v376q-1 11 -12 12zM392 471h-296v295h295v-295h1zM977 636l-212 212q-7 6 -16 6t-16 -6l-212 -212q-7 -7 -7 -16t7 -16l212 -212q7 -7 16 -7t16 7l212 212q6 7 6 16t-6 16zM432 313
h-376q-5 0 -8.5 -3.5t-3.5 -8.5v-376q0 -5 3.5 -8.5t8.5 -3.5h376q5 0 8.5 3.5t3.5 8.5v377q-1 10 -12 11zM392 -34h-296v295h295v-295h1zM933 313h-377q-5 0 -8.5 -3.5t-3.5 -8.5v-376q0 -5 3.5 -8.5t8.5 -3.5h377q5 0 8 3.5t4 8.5v377q-1 10 -12 11zM892 -34h-295v295h295
v-295z" />
    <glyph glyph-name="add-1" unicode="&#xe654;" 
d="M567 58q-1 -24 -16.5 -39.5t-38.5 -15.5v0q-23 0 -38.5 15.5t-16.5 39.5v610q1 23 16.5 38.5t38.5 16.5v0q23 -1 38.5 -16.5t16.5 -38.5v-610zM817 418q23 -1 38.5 -16.5t16.5 -38.5v0q-1 -24 -16.5 -39.5t-38.5 -15.5h-610q-23 0 -38.5 15.5t-16.5 39.5v0
q1 23 16.5 38.5t38.5 16.5h610zM817 418z" />
    <glyph glyph-name="file-b" unicode="&#xe655;" 
d="M790 178l-138 -119v119h138zM199 763h627v-516h-209q-14 0 -24 -10t-11 -25v-206h-383v757zM861 832h-697q-14 0 -24.5 -10t-10.5 -25v-826q0 -14 10.5 -24t24.5 -10h453l279 241v619q0 15 -10.5 25t-24.5 10z" />
    <glyph glyph-name="template-1" unicode="&#xe656;" 
d="M512 384zM44 602l409 -177q46 -20 77.5 -11.5t32.5 11.5l415 174l2 3q16 8 16 28q0 12 -6.5 20t-16.5 10l-410 177q-43 15 -69.5 8.5t-27.5 -8.5l-420 -177q-10 -4 -15 -12t-5 -18q1 -20 18 -28zM44 602zM512 223q-5 -1 -10 2l-487 215q-9 5 -12.5 14.5t0.5 19t13.5 13
t19.5 -0.5l476 -210l476 210q10 4 19.5 0.5t13.5 -13t0.5 -19t-12.5 -14.5l-487 -215q-5 -3 -10 -2zM512 72q-5 -1 -10 2l-487 215q-9 5 -12.5 14.5t0.5 18.5t13.5 12.5t19.5 -1.5l476 -208l476 208q10 4 19.5 0.5t13.5 -13.5t0.5 -19.5t-12.5 -13.5l-487 -215h-10zM512 -79
q-5 -1 -10 2l-487 215q-9 4 -12.5 14t0.5 19.5t13.5 13t19.5 -0.5l476 -210l476 210q10 4 19.5 0.5t13.5 -13t0.5 -19.5t-12.5 -14l-487 -215q-5 -3 -10 -2z" />
    <glyph glyph-name="cart" unicode="&#xe657;" 
d="M366 85q-30 -1 -50 -21t-20 -50t20 -50t50 -20t50 20t20 50t-20 50t-50 21zM366 -6q-8 0 -13.5 6t-5.5 14t5.5 13.5t13.5 5.5t13.5 -5.5t5.5 -13.5t-5.5 -14t-13.5 -6zM809 85q-30 -1 -50 -21t-20 -50t20 -50t50 -20t50 20t20 50t-20 50t-50 21zM809 -6q-9 0 -14.5 6
t-5.5 14t5.5 13.5t14 5.5t14 -5.5t5.5 -13.5t-5.5 -14t-13.5 -6zM444 306q-11 -1 -17.5 -9t-5.5 -18.5t8.5 -17t17.5 -6.5l443 45l10 3l6 6l5 10l57 253q1 7 -1 12q1 3 1 7q0 10 -7.5 17.5t-17.5 7.5h-748l-52 160q-3 8 -10 12.5t-15 4.5h-63q-11 0 -18.5 -7t-7.5 -18
t7.5 -18.5t18.5 -7.5h45l198 -603q3 -8 9.5 -13t15.5 -5q3 0 6 1h567q11 0 18.5 7.5t7.5 18t-7.5 18t-18.5 7.5h-555l-129 392h701l-48 -217z" />
    <glyph glyph-name="star-fill" unicode="&#xe658;" 
d="M752 -43q-15 0 -30 8l-208 104l-210 -104q-16 -9 -34 -7.5t-33 12.5t-22 28t-4 36l43 224l-164 153q-14 14 -18.5 32t1 36t19 30t33.5 14l229 42l102 208q9 17 24 26.5t33.5 9.5t34.5 -9.5t23 -26.5l103 -208l228 -40q19 -3 32.5 -15t19.5 -30t1.5 -36t-17.5 -31
l-165 -155l41 -224q4 -20 -3.5 -36.5t-22 -28.5t-36.5 -12z" />
    <glyph glyph-name="dollar" unicode="&#xe659;" 
d="M518 -65q-188 4 -313 129t-130 313q5 188 130 312.5t313 129.5q188 -5 312.5 -129.5t129.5 -312.5q-5 -188 -129.5 -313t-312.5 -129zM518 863q-207 -5 -344.5 -142t-142.5 -344q5 -207 142.5 -344.5t344.5 -142.5q206 5 343.5 142.5t142.5 344.5q-5 207 -142.5 344
t-343.5 142zM497 425q-28 11 -45.5 28t-25.5 36.5t-8 39.5q0 27 8 48.5t25.5 35t45.5 18.5v-206zM534 356q26 -10 46.5 -24.5t33 -35.5t12.5 -51q0 -21 -5.5 -40.5t-17.5 -35t-29 -24.5t-39 -10v221h-1zM534 94q44 5 75.5 24.5t48 51.5t16.5 76q0 24 -5 43t-14.5 34.5
t-23.5 28.5t-31.5 24t-34.5 19.5t-31 13.5v222q22 -5 37 -16t24 -26.5t13 -32.5t4 -34h46q0 24 -5.5 48t-19 45t-38 37t-61.5 23v50h-37v-54q-35 -4 -58.5 -16t-38 -29.5t-21.5 -35.5t-9 -33t-2 -24q0 -32 10 -57t27.5 -43.5t40.5 -33t51 -26.5v-238q-27 3 -45 16t-28 32
t-13.5 42.5t-1.5 47.5h-48q-2 -36 5 -67t23.5 -55t43 -39t64.5 -18v-65h37v65z" />
    <glyph glyph-name="prev" unicode="&#xe65a;" 
d="M63 384l423 424q15 14 34.5 14t34 -14.5t14.5 -34t-14 -34.5l-355 -355l356 -357q15 -15 15 -34.5t-15 -34t-34 -14.5t-34 14l-40 40v0zM451 384l424 424q15 14 34.5 14t34 -14.5t14.5 -34t-15 -34.5l-355 -355l357 -357q14 -15 14 -34.5t-14.5 -34t-34 -14.5t-33.5 14
l-40 40v0zM451 384z" />
    <glyph glyph-name="next" unicode="&#xe65b;" 
d="M948 383l-412 -412q-14 -14 -33 -14t-33.5 14t-14.5 33t14 34l346 345l-347 347q-14 15 -14 34t14 33t33 14t33 -14l39 -39v0l375 -375v0zM570 383l-412 -412q-15 -14 -34 -14t-33 14t-14 33t14 34l345 345l-347 347q-14 15 -14 34t14.5 33t33.5 14t33 -14l39 -39h-1
l376 -375v0zM570 383z" />
    <glyph glyph-name="return" unicode="&#xe65c;" 
d="M928 418h-759l309 309q8 9 8 21t-9 21.5t-21.5 9.5t-21.5 -9l-359 -359q-3 -2 -5 -6q-6 -8 -6 -19t9 -20l361 -362q9 -9 21.5 -9t21.5 9.5t9 21.5t-8 21l-310 310h760q13 0 21 8.5t8 21.5t-8 22t-21 9z" />
    <glyph glyph-name="camera-fill" unicode="&#xe65d;" 
d="M512 480q-58 -1 -96.5 -39t-40.5 -95q2 -57 40.5 -95t96.5 -40q58 2 96.5 40t40.5 95q-2 57 -40.5 95t-96.5 39zM512 173q-75 2 -124.5 50.5t-51.5 122.5q2 73 51.5 122t124.5 50q75 -1 124.5 -50t51.5 -122q-2 -74 -51.5 -122.5t-124.5 -50.5zM903 691h-179
q-16 0 -28 11l-55 55q-12 11 -28 11h-202q-16 0 -28 -11l-55 -55q-12 -11 -28 -11h-179q-33 -1 -55 -22.5t-23 -54.5v-537q1 -33 23 -54.5t55 -22.5h782q33 1 55 22.5t23 54.5v537q-1 33 -23 54.5t-55 22.5z" />
    <glyph glyph-name="rmb" unicode="&#xe65e;" 
d="M512 896q-218 -5 -362.5 -149.5t-149.5 -362.5q5 -218 149.5 -362.5t362.5 -149.5q218 5 362.5 149.5t149.5 362.5q-5 218 -149.5 362.5t-362.5 149.5zM512 -92q-202 6 -336 140t-140 336q6 202 140 336t336 140q202 -6 336 -140t140 -336q-6 -202 -140 -336t-336 -140z
M739 301h-195v70h195q13 0 22.5 9t9.5 23t-9.5 23t-22.5 9h-149l149 210q7 12 3.5 24.5t-15 19t-24 3.5t-19.5 -15l-172 -240l-171 240q-7 12 -19.5 15t-24.5 -3.5t-15.5 -19t3.5 -24.5l150 -210h-149q-14 0 -23 -9t-9 -23t9 -23t23 -9h194v-70h-194q-14 0 -23 -9t-9 -23
t9 -23t23 -9h194v-133q0 -13 9.5 -22.5t23 -9.5t22.5 9.5t9 22.5v133h195q13 0 22.5 9t9.5 23t-9.5 23t-22.5 9z" />
    <glyph glyph-name="more" unicode="&#xe65f;" 
d="M224 288q-41 1 -68 28t-27 68t27 68t68 27t68 -27t27 -68t-27 -68t-68 -28zM512 288q-41 1 -68 28t-27 68t27 68t68 27t68 -27t27 -68t-27 -68t-68 -28zM800 288q-41 1 -68 28t-27 68t27 68t68 27t68 -27t27 -68t-27 -68t-68 -28z" />
    <glyph glyph-name="camera" unicode="&#xe660;" 
d="M884 649h-180l-30 59q-8 18 -19 30t-35 12h-203q-24 0 -36 -13t-19 -31l-29 -57h-181q-26 -1 -43.5 -18.5t-17.5 -43.5v-488q0 -26 17.5 -43.5t43.5 -18.5h732q26 1 43.5 18.5t18.5 43.5v488q-1 26 -18.5 43.5t-43.5 18.5zM904 99q0 -8 -5.5 -14t-14.5 -6h-732
q-8 0 -13.5 6t-5.5 14v488q0 8 5.5 13.5t13.5 6.5h207l40 80q7 15 10 18.5t8 2.5h203h6q1 -2 5 -7l47 -94h206q9 -1 14.5 -6.5t5.5 -13.5v-488zM526 566q-96 -3 -159 -66t-65 -158q2 -95 65 -158t159 -66q95 3 158 66t65 158q-2 95 -65 158t-158 66zM526 163
q-77 2 -127 52.5t-52 126.5q2 76 52 126.5t127 52.5q76 -2 126 -52.5t52 -126.5q-2 -76 -52 -126.5t-126 -52.5zM772 566v-45h89v45h-89z" />
    <glyph glyph-name="female" unicode="&#xe661;" 
d="M774 800q-36 26 -80 38.5t-92 12.5q-81 0 -151.5 -38t-117.5 -112q-66 -105 -47.5 -220.5t108.5 -195.5l-32 -51l-189 121q-2 3 -25 10.5t-39 -13.5q-14 -27 2.5 -45t19.5 -19l189 -122l-106 -163q-2 -1 -5 -18t21 -33q29 -14 43.5 -2t14.5 15l102 160l186 -122
q2 -3 26.5 -10t43.5 17q11 22 -5.5 39t-19.5 18l-189 125l32 48q34 -17 69 -24.5t69 -7.5q80 0 151 38t117 112q71 116 43.5 240.5t-139.5 201.5zM810 400q-35 -51 -87 -79.5t-115 -29.5q-34 0 -68 9.5t-63 29.5q-85 58 -106.5 151.5t32.5 180.5q35 49 88 77.5t114 31.5
q34 0 68 -9.5t63 -28.5q85 -59 106.5 -152.5t-32.5 -180.5z" />
    <glyph glyph-name="male" unicode="&#xe662;" 
d="M890 800h-240q-2 1 -18 -5.5t-21 -36.5q1 -15 11.5 -26t27.5 -12h140l-179 -179q-41 31 -90.5 49t-104.5 18q-135 -3 -225.5 -93.5t-94.5 -226.5q4 -135 94.5 -225.5t225.5 -94.5q136 4 226.5 94.5t93.5 225.5q0 55 -18 104.5t-49 90.5l179 179v-140q1 -18 12 -28t26 -11
q17 1 27.5 12.5t11.5 29.5v240h3q-4 25 -20 30.5t-18 4.5zM416 48q-101 3 -167.5 69.5t-69.5 167.5q3 101 69.5 167.5t167.5 69.5q101 -3 167.5 -69.5t69.5 -167.5q-3 -101 -69.5 -167.5t-167.5 -69.5z" />
    <glyph glyph-name="template" unicode="&#xe663;" 
d="M734 173v83h-60v-37l-36 -10l16 -58zM674 419h60v-81h-60v81zM734 600l-96 -26l16 -58l20 6v-21h60v99zM866 131v-37l-36 -9l16 -58l80 21v83h-30h-30zM741 60l-90 -24l16 -58l90 25l-8 28zM741 782l-90 -25l16 -57l90 24l-8 29zM830 806l8 -29l8 -29l20 6v-21h60v99z
M866 613v-121h60v121h-30h-30zM866 372v-120h60v120h-30h-30zM542 666l36 9l-16 58l-50 -13l-414 112v-783l414 -113l66 18l-16 58l-20 -6v115l36 9l-16 58l-20 -5v303l36 10l-16 58l-20 -6v118zM482 6l-324 88v660l324 -88v-118l-192 52v-427l192 -52v-115zM482 367v-184
l-132 36v303l132 -36v-119z" />
    <glyph glyph-name="face-surprised" unicode="&#xe664;" 
d="M486 -128q-204 5 -339 140.5t-140 338.5q5 203 140 338.5t339 140.5q203 -5 338 -140.5t141 -338.5q-6 -203 -141 -338.5t-338 -140.5zM486 799q-190 -5 -316.5 -131.5t-131.5 -316.5q5 -190 131.5 -316.5t316.5 -131.5q190 5 316.5 131.5t131.5 316.5
q-5 190 -131.5 316.5t-316.5 131.5zM352 447q-1 -23 -16.5 -38.5t-39 -15.5t-39 15.5t-15.5 39t15.5 39t39 15.5t39 -15.5t16.5 -39.5zM674 503q-23 -1 -38.5 -16.5t-15.5 -39t15.5 -39t39 -15.5t39 15.5t15.5 39t-15.5 39t-39.5 16.5zM562 165q-1 -46 -22.5 -76.5
t-53.5 -31.5q-33 1 -54.5 31.5t-21.5 76.5t21.5 76.5t54.5 31.5q32 -1 53.5 -31.5t22.5 -76.5zM836 794q0 2 10 31.5t32 54.5q23 20 46.5 15t31 -24.5t-0.5 -35t-28 -20.5q-20 -3 -41 -1t-50 -20zM917 758q1 1 21 10t44 9q22 -2 30.5 -17t1.5 -28t-18.5 -16.5t-23 5
t-21 20.5t-34.5 17z" />
    <glyph glyph-name="console" unicode="&#xe665;" 
d="M31 105q4 -13 15 -17.5t22.5 -1t16.5 14.5t1 22q-50 147 -7.5 286t159.5 231q17 13 37 26q38 25 84 39q88 32 177 28h25q9 1 19 -2q44 -7 88 -24q179 -70 255.5 -234.5t14.5 -346.5q-3 -13 2 -23.5t17 -14t22.5 1.5t14.5 17q31 88 30.5 177t-30.5 172h2
q-58 152 -181.5 240.5t-276.5 97.5h-49q-153 -9 -276.5 -97.5t-181.5 -240.5q-30 -82 -31 -172t31 -179zM738 491q-9 9 -21 9t-21 -9l-174 -174q-7 2 -14 2q-25 -1 -41.5 -17t-16.5 -41t16.5 -41.5t41.5 -16.5t41 16.5t17 41.5q0 6 -3 16l175 174q9 10 9 21.5t-9 18.5z
M966 33h-908q-12 -1 -20.5 -9.5t-8.5 -21t8.5 -21.5t20.5 -9h908q13 0 21.5 9t8.5 21.5t-8.5 21t-21.5 9.5z" />
    <glyph glyph-name="refresh-1" unicode="&#xe666;" 
d="M688 736l-192 128v-256zM496 768q-178 -11 -295 -132t-121 -300q5 -184 127 -305.5t305 -126.5q179 4 300 121t132 295h-64q-10 -151 -113 -249.5t-255 -102.5q-156 4 -260 108t-108 260q4 152 103 255t249 113v64z" />
    <glyph glyph-name="notice" unicode="&#xe667;" 
d="M544 799v65h-64v-65q-145 -10 -231.5 -105.5t-88.5 -277.5v-288h64v288q2 146 79.5 232t208.5 88q136 -2 211.5 -88t76.5 -232v-288h64v288q-1 182 -85.5 278t-234.5 105zM672 64q-2 -68 -47 -113t-113 -47q-68 2 -113 47t-47 113h64q1 -41 28 -68t68 -27t68 27t28 68h64
zM64 128h896v-64h-896v64z" />
    <glyph glyph-name="shrink-right" unicode="&#xe668;" 
d="M52 -29h900q13 1 21.5 9.5t8.5 20.5v60q0 13 -8.5 21.5t-21.5 8.5h-900q-12 0 -20.5 -8.5t-9.5 -21.5v-60q1 -12 9.5 -20.5t20.5 -9.5zM952 451h-480q-13 0 -21 -8.5t-9 -21.5v-60v0q1 -13 9 -21t21 -9h480q13 1 21.5 9t8.5 21v0v60q0 13 -8.5 21.5t-21.5 8.5zM52 691
h900q13 0 21.5 8.5t8.5 21.5v60q0 13 -8.5 21.5t-21.5 8.5h-900q-12 0 -20.5 -8.5t-9.5 -21.5v-60q1 -13 9.5 -21.5t20.5 -8.5zM45 384l240 -151v301z" />
    <glyph glyph-name="refresh" unicode="&#xe669;" 
d="M928 811q-14 -1 -23 -9.5t-9 -22.5v-165q-62 101 -163 159t-221 59q-190 -5 -316.5 -131.5t-131.5 -316.5q5 -190 131.5 -316.5t316.5 -131.5q177 4 300.5 115t145.5 287q1 13 -7 23t-21.5 12t-23.5 -6.5t-12 -21.5q-19 -151 -125 -246.5t-257 -98.5q-163 4 -271.5 112.5
t-112.5 271.5q4 163 112.5 271.5t271.5 112.5q105 -1 192.5 -52t140.5 -140h-152q-14 0 -22.5 -9t-8.5 -23t8.5 -23t22.5 -9h267v267q0 14 -9.5 22.5t-22.5 9.5z" />
    <glyph glyph-name="theme" unicode="&#xe66a;" 
d="M512 800q-217 -6 -361.5 -150.5t-150.5 -361.5q0 -68 22 -129t63.5 -108t95 -72t114 -25t119 27t111.5 80l2 2q98 122 205 121q35 0 67 -9.5t60 -20.5q22 -9 42.5 -15t38.5 -6q60 5 73.5 60t10.5 95q-6 217 -150.5 361.5t-361.5 150.5zM940 197q-10 0 -25.5 5t-33.5 12
q-30 12 -67.5 22.5t-81.5 11.5q-137 1 -254 -143q-43 -43 -89.5 -65t-94.5 -22q-46 0 -87 19.5t-74 57t-51 87.5t-18 106q5 190 131.5 316.5t316.5 131.5q190 -5 316.5 -131.5t131.5 -316.5q0 -24 -3.5 -56t-16.5 -35zM801 380zM737 380q0 -27 18.5 -45t45.5 -18t45 18
t18 45t-18 45t-45 18t-45.5 -18t-18.5 -45zM457 583zM393 583q1 -28 19 -46t45 -18t45 18t18 45.5t-18 45.5t-45 18t-45 -18t-19 -45zM673 556zM609 556q0 -27 18.5 -45t45.5 -18t45 18t18 45t-18 45t-45 18t-45.5 -18t-18.5 -45zM291 444zM227 444q1 -27 19 -45t45.5 -18
t45.5 18t18 45t-18 45t-45.5 18t-45.5 -18t-19 -45zM278 197zM182 197q1 -41 28.5 -68t68 -27t67.5 27t27 68t-27 68t-67.5 27t-68 -27t-28.5 -68z" />
    <glyph glyph-name="spread-left" unicode="&#xe66b;" 
d="M943 771h-844q-12 0 -19.5 -8t-8.5 -20v-56q1 -12 8.5 -20t19.5 -9h844q12 1 20 9t8 20v56q0 12 -8 20t-20 8zM99 321h450q12 0 20 8t8 20v56v0q0 12 -8 20t-20 9h-450q-12 -1 -19.5 -9t-8.5 -20v0v-56q1 -12 8.5 -20t19.5 -8zM943 96h-844q-12 0 -19.5 -8t-8.5 -20v-56
q1 -12 8.5 -20t19.5 -8h844q12 0 20 8t8 20v56q0 12 -8 20t-20 8zM950 384l-225 142v-283z" />
    <glyph glyph-name="flag" unicode="&#xe66c;" 
d="M878 798q-8 4 -17 2.5t-16 -8.5q-1 -2 -26 -20.5t-69 -35.5q-114 -40 -224 25q-58 35 -129 53q-57 14 -120 16q-54 2 -87.5 -1.5t-35.5 -4.5q-11 -3 -18 -11t-7 -19v-825q0 -13 8.5 -22t21.5 -9t22 9t9 22v298q12 4 35.5 9.5t55.5 7.5q55 4 109 -6q67 -13 131 -47
q70 -37 141 -49q58 -9 114 -2q49 7 76.5 18t29.5 13q15 9 15 27v532q0 9 -5 17t-14 11zM836 257q-11 -4 -29 -9t-42 -8q-46 -5 -95 3q-60 11 -120 42q-73 39 -151 54q-44 8 -88 8q-19 0 -37 -2q-53 -5 -84 -14v436q15 1 37 2t49 0q45 -1 103 -14t115 -46q47 -27 89.5 -38.5
t80.5 -11.5q32 1 59.5 6.5t49.5 13.5q37 14 63 30v-452z" />
    <glyph glyph-name="print" unicode="&#xe66d;" 
d="M844 604h-47v121q-3 37 -30.5 62t-64.5 24h-390q-35 1 -60.5 -24.5t-24.5 -61.5v-121h-56q-36 1 -61.5 -24.5t-24.5 -61.5v-325q-1 -37 24 -64.5t62 -29.5h56v-52q1 -37 27 -63t63 -27h390q37 1 63 27t27 63v52h47q39 2 65.5 28.5t29.5 65.5v325q-3 37 -30.5 62t-64.5 24
zM279 725q-1 14 9 24.5t24 9.5h390q15 0 28.5 -8.5t14.5 -25.5v-121h-466v121zM745 47q-1 -16 -11.5 -27t-26.5 -11h-390q-16 0 -26.5 11t-11.5 27v171q0 15 11 26.5t27 11.5h390q16 0 26.5 -11t11.5 -27v-171zM887 193q-1 -17 -13 -29t-30 -13h-47v66q-1 38 -26.5 63
t-63.5 26h-390q-37 0 -63 -26t-27 -63v-66h-56q-16 2 -26 14.5t-8 28.5v324q-1 15 9 25t25 9h673q15 0 28.5 -8.5t14.5 -25.5v-325zM247 474h-38q-10 3 -10 13.5t10 12.5h39q9 2 13.5 -5.5t0 -14.5t-13.5 -6h-1zM341 474h-42q-9 -1 -13.5 6t0 14.5t13.5 5.5h42
q10 -2 10 -12.5t-10 -13.5zM768 358h-520q-10 3 -10 13t10 13h520q10 -3 10 -13t-10 -13z" />
    <glyph glyph-name="note" unicode="&#xe66e;" 
d="M987 384l-475 475q-13 13 -29.5 19.5t-35.5 5.5l-335 -20q-33 -3 -55 -25t-25 -55l-20 -335q-1 -19 5.5 -35.5t19.5 -29.5l475 -475q26 -25 59.5 -25t60.5 25l355 355q25 27 25 60.5t-25 59.5zM948 304l-356 -356q-9 -8 -20.5 -8t-20.5 8l-475 475q-9 9 -8 22l19 336
q1 12 8.5 19.5t19.5 8.5l336 19q13 1 22 -8l475 -475q8 -9 8 -20.5t-8 -20.5zM237 659q-38 -40 -38 -92t38 -93q40 -38 92 -38t93 38q38 41 38 93t-38 92q-41 38 -93 38t-92 -38zM382 514q-22 -22 -52.5 -22t-53.5 22q-16 16 -20.5 38t4.5 43.5t27.5 34t41.5 12.5
t41.5 -12.5t27.5 -34t4.5 -43.5t-20.5 -38z" />
    <glyph glyph-name="username" unicode="&#xe66f;" 
d="M515 825q-111 -3 -185 -77.5t-76 -187.5q0 -67 29.5 -122.5t79.5 -92.5q-103 -46 -165.5 -139.5t-64.5 -214.5h1q2 -17 13 -27.5t27.5 -10.5t27.5 10.5t12 27.5h1v3q3 122 79 206.5t194 98.5q13 -3 27 -3q111 3 184.5 77.5t76.5 186.5q-3 113 -77 187.5t-184 77.5z
M515 378q-77 2 -128 53.5t-53 129.5q2 78 53 129.5t128 53.5q76 -2 127 -53.5t53 -129.5q-2 -78 -53 -129.5t-127 -53.5zM896 -7v1q-1 80 -30.5 148.5t-81.5 121.5v0q-11 11 -27.5 11t-27.5 -11t-11 -28t11 -29v0q40 -41 62.5 -96t22.5 -117v-3h1q2 -17 13 -27.5t27.5 -10.5
t27.5 10.5t12 27.5h1v2z" />
    <glyph glyph-name="find-fill" unicode="&#xe670;" 
d="M512 896q-218 -5 -362.5 -149.5t-149.5 -362.5q5 -218 149.5 -362.5t362.5 -149.5q218 5 362.5 149.5t149.5 362.5q-5 218 -149.5 362.5t-362.5 149.5zM657 384q-1 -59 -39.5 -99.5t-96.5 -44.5l-176 -152l-23 13l58 222q-13 28 -13 61q1 59 39.5 99.5t96.5 44.5l176 152
l23 -13l-59 -222q14 -28 14 -61zM512 384zM446 384q1 -28 19.5 -46.5t46.5 -18.5t46.5 18.5t18.5 46.5t-18.5 46.5t-46.5 18.5t-46.5 -18.5t-19.5 -46.5z" />
    <glyph glyph-name="more-vertical" unicode="&#xe671;" 
d="M512 624q31 1 52 23.5t21 56.5t-21 56.5t-52 22.5t-52 -22.5t-21 -56.5t21 -56.5t52 -23.5v0zM512 464q-31 -1 -52 -23.5t-21 -56.5t21 -56.5t52 -22.5t52 22.5t21 56.5t-21 56.5t-52 23.5v0zM512 144q-31 -1 -52 -23.5t-21 -56.5t21 -56.5t52 -22.5t52 22.5t21 56.5
t-21 56.5t-52 23.5v0z" />
    <glyph glyph-name="auz" unicode="&#xe672;" 
d="M324 435q-13 13 -27.5 13t-23.5 -13q-13 -13 -13 -27.5t13 -23.5l154 -159q4 -5 11.5 -8t16 -3t14.5 3l15 8l295 290q13 13 13 27.5t-13 23.5q-13 13 -27.5 13t-23.5 -13l-273 -262zM927 754l-404 142h-22l-404 -142q-27 -9 -29 -34v-433q33 -189 211.5 -299t215.5 -116
h23q36 6 215 114t211 301v433q8 12 2.5 21t-19.5 13zM882 293q-21 -138 -162 -228t-208 -113q-97 36 -223.5 127.5t-146.5 213.5v398l370 131l370 -125v-404z" />
    <glyph glyph-name="password" unicode="&#xe673;" 
d="M519 343q-31 0 -52 -21t-22 -53q0 -23 11.5 -40.5t30.5 -26.5v-82q1 -14 10 -23t22.5 -9t22.5 9t9 23v82q19 9 30.5 26.5t12.5 40.5q-1 31 -22 52.5t-53 21.5zM828 -62h-639q-27 1 -45.5 19t-19.5 46v425q1 28 19.5 46.5t45.5 19.5h639q26 -1 45 -20t20 -46v-425
q-1 -28 -19.5 -46t-45.5 -19zM232 427q-26 1 -34 -7.5t-7 -33.5v-340q-1 -26 7.5 -34t33.5 -8h553q26 0 34 8t7 34v340q1 25 -7.5 33.5t-33.5 7.5h-553zM519 87q-14 0 -23.5 9.5t-9.5 23.5v81q-20 10 -31 28t-12 40q1 32 22.5 53.5t53.5 21.5t53.5 -21.5t22.5 -53.5
q0 -22 -11.5 -40t-31.5 -28v-81q0 -14 -9.5 -23.5t-23.5 -9.5zM519 342q-31 -1 -51.5 -21.5t-21.5 -51.5q0 -22 11 -39.5t31 -26.5h1v-83q0 -13 8.5 -21.5t21.5 -8.5t22 8.5t9 21.5v83h1q19 10 30 27t12 39q-1 31 -22 51.5t-52 21.5zM207 523q-14 0 -24 10t-10 24v2l1 6
q12 57 42 106.5t75 86t100.5 56.5t116.5 20q46 0 90 -12t82.5 -35t70 -54.5t53.5 -69.5q6 -9 6 -19q0 -14 -9.5 -23.5t-23.5 -9.5q-10 0 -18.5 5t-12.5 14q-38 64 -100.5 100.5t-137.5 37.5q-98 -2 -170.5 -59.5t-96.5 -152.5v0q-1 -14 -10.5 -23.5t-23.5 -9.5z" />
    <glyph glyph-name="senior" unicode="&#xe674;" 
d="M720 249l-205 131v105l217 -141q8 -8 69 -4t70 111q-10 71 -89.5 78t-107.5 -67l-70 48q-3 6 29 51t133 55q103 1 148 -58.5t43 -140.5q-6 -83 -81 -135t-156 -33zM561 414q-3 -15 -16 -24t-32 -10l-224 142q-7 6 -60 2t-68 -85q1 -88 74.5 -95.5t112.5 71.5l81 -47
q0 -8 -49 -60t-149 -60q-106 8 -151.5 103.5t34.5 194.5q87 86 156.5 75t100.5 -39q14 -10 58 -40l104 -68q21 -14 26.5 -28t1.5 -32zM434 150h212q13 -1 21.5 -9.5t8.5 -21.5v-15q0 -13 -8.5 -21.5t-21.5 -8.5h-212q-13 0 -21.5 8.5t-8.5 21.5v15q0 13 8.5 21.5t21.5 9.5z
" />
    <glyph glyph-name="login-weibo" unicode="&#xe675;" 
d="M411 288q-14 6 -28.5 1t-23 -18.5t-5.5 -26.5t17 -19t29 -1.5t23.5 18.5t5 27t-17.5 19zM456 307q-6 2 -11.5 -0.5t-8.5 -7.5q-6 -11 5 -17q6 -2 11.5 0t8.5 7.5t1.5 10.5t-6.5 7zM428 427q-90 -11 -145 -55.5t-52 -102.5q8 -59 71 -91.5t153 -25.5q89 10 144.5 54.5
t51.5 103.5q-8 58 -71 91t-152 26zM529 248q-19 -41 -61.5 -59t-87.5 -5q-43 15 -58 49.5t3.5 72.5t58.5 55t82 7q44 -12 62 -46t1 -74zM512 896q-218 -5 -362.5 -149.5t-149.5 -362.5q5 -218 149.5 -362.5t362.5 -149.5q218 5 362.5 149.5t149.5 362.5q-5 218 -149.5 362.5
t-362.5 149.5zM456 101q-114 1 -202 49.5t-92 136.5q0 45 27 95.5t77 100.5q69 67 133.5 92t96.5 -3q13 -13 14.5 -34t-6.5 -47q-3 -13 6 -11.5t10 3.5q55 22 97 22.5t60 -23.5q17 -27 -1 -70q-3 -9 0.5 -12.5t11.5 -5.5q32 -9 57.5 -32.5t27.5 -62.5q-2 -70 -87.5 -132
t-229.5 -66zM719 468q3 11 1 22.5t-10.5 20.5t-19.5 12.5t-23 1.5v0q-9 -2 -17 3t-10 14.5t3 17.5t15 10q23 5 46 -2t40 -26t21.5 -42t-2.5 -46q-4 -9 -12 -13.5t-17.5 -1.5t-13.5 11.5t-1 17.5v0zM853 425v0q-4 -11 -13.5 -16t-20 -1.5t-15.5 13t-2 20.5v0q11 33 4 67
t-32 61.5t-58 37.5t-67 3q-11 -2 -20 4t-11.5 17t3.5 20t17 12v0q48 10 94.5 -4.5t81.5 -53t44.5 -86.5t-5.5 -94z" />
    <glyph glyph-name="login-qq" unicode="&#xe676;" 
d="M512 896q-218 -5 -362.5 -149.5t-149.5 -362.5q5 -218 149.5 -362.5t362.5 -149.5q218 5 362.5 149.5t149.5 362.5q-5 218 -149.5 362.5t-362.5 149.5v0zM739 259q0 -2 -12 -27.5t-34 -56.5q3 0 25.5 -15t23.5 -50q3 -3 -14 -25.5t-100 -23.5q-4 0 -43.5 8t-61.5 33h-22
q-22 -25 -61.5 -33t-43.5 -8q-83 1 -100 23.5t-14 25.5q1 35 23.5 50t25.5 15q-22 31 -34 56.5t-12 27.5q-51 -75 -59 -35.5t-6 51.5q14 60 40.5 94.5t30.5 35.5q-4 52 7.5 69t13.5 15q16 158 100.5 191t99.5 26q15 7 99.5 -26t100.5 -191q2 2 13.5 -15t7.5 -69
q4 -1 30.5 -35.5t40.5 -94.5v0q2 -12 -6 -51.5t-59 35.5v0zM739 259z" />
    <glyph glyph-name="login-wechat" unicode="&#xe677;" horiz-adv-x="1059" 
d="M516 896q-217 -5 -361.5 -149.5t-150.5 -362.5q6 -218 150.5 -362.5t361.5 -149.5q218 5 362.5 149.5t149.5 362.5q-5 218 -149.5 362.5t-362.5 149.5zM442 373v-2l-12 -38l-3 -50l8 -42l-13 -1h-21q-11 0 -21 2l-12 2l-46 9l-7 -4l-4 2l-80 -41l31 80l-46 40l-31 43
l-22 58l-3 51l10 46l27 57l31 35l27 23l35 20l43 17l23 6l24 4q16 1 33 2h3q16 -1 33 -2l13 -2l27 -6l29 -9l30 -13l31 -19l40 -36l10 -11l20 -30l22 -57l-14 1h-23l-20 -2l-20 -4l-20 -5l-27 -12l-29 -17l-34 -30l-18 -22l-20 -38zM876 301v-11l-3 -19l-25 -59l-31 -39
l-30 -26l21 -67l-69 40l-7 -2l-45 -10l-15 -1h-20q-10 0 -19 1l-11 2l-16 3l-22 7l-30 13l-29 18l-31 27l-19 26l-25 59l-3 55l3 22l25 59l31 37l42 31l36 16l29 9l20 3q14 1 29 1h1q14 0 28 -1l11 -2l15 -3l22 -7l30 -13l28 -17l33 -30l19 -26q1 0 1 -1l26 -60l3 -35h-3z
M590 384q-10 0 -17.5 -8t-7.5 -17.5t7.5 -17t17.5 -8.5q14 1 22.5 8.5t8.5 17t-8.5 17.5t-22.5 8zM730 384q-10 0 -17.5 -8t-7.5 -17.5t7.5 -17t17.5 -8.5q14 1 22.5 8.5t8.5 17t-8.5 17.5t-22.5 8zM329 569q-15 0 -26.5 -8.5t-11.5 -23t11.5 -23.5t26 -9t23 9t8.5 23.5
t-8.5 23t-22.5 8.5zM507 569q-15 0 -26.5 -8.5t-11.5 -23t11.5 -23.5t26.5 -9t23.5 9t8.5 23.5t-9 23t-23 8.5z" />
    <glyph glyph-name="cellphone" unicode="&#xe678;" 
d="M785 896h-546q-44 -1 -72.5 -30t-29.5 -72v-820q1 -43 29.5 -72t72.5 -30h546q44 1 72.5 30t29.5 72v820q-1 43 -29.5 72t-72.5 30zM239 828h546q15 -1 24.5 -10.5t9.5 -23.5v-649h-614v649q0 14 9.5 23.5t24.5 10.5zM785 -60h-546q-15 1 -24.5 10.5t-9.5 23.5v103h614
v-103q0 -14 -9.5 -23.5t-24.5 -10.5zM512 9zM478 9q0 -20 17 -29.5t34 0t17 29t-17 29t-34 0t-17 -28.5zM427 725h170q8 1 12.5 5.5t4.5 12t-4.5 12t-12.5 4.5h-170q-8 0 -12.5 -4.5t-4.5 -12t4.5 -12t12.5 -5.5z" />
    <glyph glyph-name="vercode" unicode="&#xe679;" 
d="M514 -128q-135 8 -289.5 158.5t-170.5 345.5v286q2 35 24.5 59.5t57.5 29.5q84 8 163 40q83 25 148 82q27 21 59.5 22t60.5 -17q69 -53 150 -86q83 -25 170 -38q33 -7 55 -32t24 -59q6 -146 -3 -292q-38 -242 -179 -370t-270 -129zM514 836q-14 0 -25 -8
q-74 -66 -170 -93q-87 -36 -180 -44q-11 -3 -17.5 -11t-7.5 -19v-284q17 -173 155.5 -305.5t244.5 -139.5q102 0 228 111.5t163 333.5q6 133 3.5 207t-3.5 76q-1 12 -9 21.5t-20 12.5q-92 14 -181 41q-86 37 -159 95q-11 7 -24 6h2zM785 479l-297 -281q-11 -9 -24 -10.5
t-25 6.5l-8 6l-162 171q-11 13 -10.5 29.5t13.5 28.5t29 11t28 -13l134 -142l268 253q13 12 29 11t28 -13.5t11.5 -29t-13.5 -28.5z" />
    <glyph glyph-name="rate-solid" unicode="&#xe67a;" 
d="M957 493q-3 8 -10 14t-17 6l-282 22l-108 277q-3 9 -11 14t-17.5 5t-17 -5t-11.5 -14l-108 -277l-282 -22q-10 0 -17 -6t-10 -14.5t-0.5 -17.5t9.5 -15l217 -194l-68 -291q-2 -9 1.5 -17.5t11 -14t17 -6t17.5 4.5l241 157l240 -157q8 -5 17 -5t17 6t11.5 14.5t1.5 17.5
l-68 291l217 194q7 6 9.5 15t-0.5 18z" />
    <glyph glyph-name="rate" unicode="&#xe67b;" 
d="M959 490l-308 47l-139 295l-139 -295l-308 -47l223 -228l-53 -324l277 153l277 -153l-53 324zM512 156l-208 -117l40 235l-179 182l242 32l105 224l104 -224l241 -34l-177 -181l37 -235z" />
    <glyph glyph-name="upload" unicode="&#xe67c;" horiz-adv-x="1033" 
d="M831 478v0q-2 110 -74 183t-179 75q-75 -1 -134.5 -39t-91.5 -100q-36 12 -65 12q-69 -2 -113.5 -47.5t-46.5 -111.5q1 -24 8 -41q-59 -23 -96.5 -71t-38.5 -114q2 -82 56.5 -136t136.5 -56h192v192h-127l258 258l258 -258h-127v-192h193v4q82 14 136 75t56 146
q-8 88 -63.5 149t-137.5 72z" />
    <glyph glyph-name="export" unicode="&#xe67d;" 
d="M896 480q0 20 -13.5 34t-34.5 14h-217q-21 0 -34.5 -14t-13.5 -34v-83h-198l-3 5q-35 70 -10 134.5t161 65.5v-109l172 165l-172 165v-107q-170 -4 -204.5 -106t46.5 -208l5 -5h-89q-20 -1 -33.5 -14.5t-14.5 -34.5v-66h-98q-21 -1 -29.5 -14.5t-1.5 -34.5l79 -217
q8 -20 26.5 -34t39.5 -14h604q18 0 27 11t6 29v8v464zM836 173l-22 60q-8 21 -26.5 34.5t-39.5 14.5h-445v30q1 11 7.5 17.5t17.5 6.5h315v108q0 10 7 16.5t17 7.5h145q10 -1 17 -7.5t7 -16.5v-271z" />
    <glyph glyph-name="upload-drag" unicode="&#xe681;" 
d="M667 446l-124 99q-11 9 -26.5 9t-26.5 -9l-124 -99q-15 -12 -16 -33q0 -15 9 -26q11 -13 28 -15t31 8l56 45v-261q1 -18 12.5 -29.5t29.5 -11.5t30 11.5t12 29.5v261l56 -45q14 -10 31 -8t28 15q9 11 10 26q-1 21 -16 33zM236 143q-64 0 -112.5 23t-76 67t-26.5 96.5
t31 98.5q28 44 74.5 68t104.5 27q-12 97 18.5 154t65.5 81q71 52 164 58t172 -37q44 -26 69.5 -63.5t30.5 -83.5q85 11 135.5 -14.5t71.5 -55.5q48 -61 53 -143.5t-34 -156.5q-36 -64 -95.5 -94t-134.5 -23q-14 2 -22.5 13t-7 25t12 22.5t25.5 7.5q72 -5 110 23.5t52 58.5
q29 55 26 117.5t-38 106.5q-29 36 -74.5 45.5t-103.5 -8.5q-5 -1 -10 -1q-15 0 -24.5 9.5t-9.5 24.5v4q5 51 -16.5 81.5t-49.5 45.5q-61 32 -133.5 28t-126.5 -44q-44 -35 -57 -87.5t6 -121.5q1 -4 1 -9q0 -14 -10 -23.5t-24 -10.5l-4 1q-54 6 -95.5 -10t-64.5 -52
q-19 -29 -20 -62t16 -60q21 -34 63 -48t101 -8h4q15 0 24.5 -9.5t9.5 -23.5t-8.5 -23.5t-21.5 -11.5q-21 -2 -41 -2z" />
    <glyph glyph-name="voice" unicode="&#xe688;" 
d="M463 644v0q-7 7 -16.5 7t-16.5 -7t-7 -17t7 -17q45 -46 69 -103.5t24 -122.5t-24 -122.5t-69 -103.5q-7 -7 -7 -17t7 -17t16.5 -7t16.5 7q53 53 81 122q27 66 27 138t-27 138q-28 69 -81 122zM782 619v0q-48 117 -137 206q-7 7 -17 7t-17 -7t-7 -16.5t7 -16.5
q83 -83 127 -191q42 -104 42 -217t-42 -217q-44 -108 -127 -191q-7 -7 -7 -16.5t7 -16.5t17 -7t17 7q89 89 137 206q46 113 46 235t-46 235zM299 428q-18 17 -43 17t-43 -18t-18 -43t18 -43t43 -18t43 18t18 43t-18 44z" />
    <glyph glyph-name="home" unicode="&#xe68e;" 
d="M824 -40h-591q-54 1 -71 16.5t-15 33.5l-1 5v433h49v-403q1 -38 38 -37h568q19 0 24 7.5t4 30.5v402h49v-433q0 -29 -11.5 -42t-40.5 -13h-2zM1012 493l-488 366q-5 4 -12 4t-12 -4l-488 -366q-17 -17 -6.5 -35.5t30.5 -6.5l476 357l476 -357q20 -12 31 6.5t-7 35.5z" />
    <glyph glyph-name="cart-simple" unicode="&#xe698;" 
d="M235 197q10 -28 35 -46t55 -19h555l129 448q9 33 -8.5 56.5t-51.5 24.5h-524q-11 0 -18 -7.5t-7 -18t7 -17.5t18 -8h524q17 0 12 -16l-123 -429l24 18h-537q-14 0 -26 9t-17 21l-208 619q-4 10 -13 14.5t-19 1t-14.5 -12.5t-1.5 -19zM400 -6q-1 43 -29.5 71.5t-71 28.5
t-70.5 -28.5t-28 -71.5t28 -71.5t70.5 -28.5t71 28.5t29.5 71.5zM250 -6q0 21 14 35.5t35.5 14.5t35.5 -14.5t14 -35.5t-14 -35.5t-35.5 -14.5t-35.5 14.5t-14 35.5zM924 -6q-1 43 -29 71.5t-70.5 28.5t-71 -28.5t-28.5 -71.5t28.5 -71.5t71 -28.5t70.5 28.5t29 71.5z
M774 -6q1 21 15 35.5t35 14.5t35.5 -14.5t14.5 -35.5t-14.5 -35.5t-35.5 -14.5t-35 14.5t-15 35.5z" />
    <glyph glyph-name="face-cry" unicode="&#xe69c;" 
d="M1024 384q-5 218 -149.5 362.5t-362.5 149.5q-218 -5 -362.5 -149.5t-149.5 -362.5q5 -218 149.5 -362.5t362.5 -149.5q89 0 170 28.5t149 82.5q8 7 9 17t-5.5 18.5t-16.5 9.5t-18 -6q-62 -48 -135 -74t-153 -26q-196 5 -326.5 135.5t-135.5 326.5q5 196 135.5 326.5
t326.5 135.5q196 -5 326.5 -135.5t135.5 -326.5q0 -66 -17.5 -127.5t-52.5 -116.5q-5 -9 -2.5 -19t11.5 -15.5t18.5 -3t15.5 11.5q38 60 57.5 128.5t19.5 141.5zM337 396q27 1 44.5 18.5t17.5 44t-17.5 44.5t-44 18t-44.5 -18t-18 -44.5t18 -44t44 -18.5zM712 396
q26 1 44 18.5t18 44t-18 44.5t-44.5 18t-44 -18t-17.5 -44.5t17.5 -44t44.5 -18.5zM353 191q32 26 75 40.5t96.5 14.5t96.5 -14.5t75 -40.5q20 -16 32.5 -31t18.5 -27q4 -10 1 -19.5t-12.5 -14t-19 -1.5t-14.5 13q-1 3 -8 11q-11 16 -29 30q-26 21 -61 33t-79.5 12
t-79.5 -12t-61 -33q-18 -14 -29 -30q-7 -8 -8 -11q-5 -10 -14.5 -13t-19 1.5t-12.5 14t1 19.5q6 12 18.5 27t32.5 31z" />
    <glyph glyph-name="face-smile" unicode="&#xe6af;" 
d="M1024 384q-5 218 -149.5 362.5t-362.5 149.5q-218 -5 -362.5 -149.5t-149.5 -362.5q5 -218 149.5 -362.5t362.5 -149.5q89 0 170 28.5t149 82.5q8 7 9 17t-5.5 18.5t-16.5 9.5t-18 -6q-62 -48 -135 -74t-153 -26q-196 5 -326.5 135.5t-135.5 326.5q5 196 135.5 326.5
t326.5 135.5q196 -5 326.5 -135.5t135.5 -326.5q0 -66 -17.5 -127.5t-52.5 -116.5q-5 -9 -2.5 -19t11.5 -15.5t18.5 -3t15.5 11.5q38 60 57.5 128.5t19.5 141.5zM337 396q27 1 44.5 18.5t17.5 44t-17.5 44.5t-44 18t-44.5 -18t-18 -44.5t18 -44t44 -18.5zM712 396
q26 1 44 18.5t18 44t-18 44.5t-44.5 18t-44 -18t-17.5 -44.5t17.5 -44t44.5 -18.5zM353 127q32 -26 75 -40.5t96.5 -14.5t96.5 14.5t75 40.5q20 16 32.5 31.5t18.5 27.5q4 9 1 18.5t-12.5 14.5t-19 1.5t-14.5 -12.5q-1 -3 -8 -12q-11 -15 -29 -30q-26 -21 -61 -32.5
t-79.5 -11.5t-79.5 11.5t-61 32.5q-18 15 -29 30q-7 9 -8 12q-5 9 -14.5 12.5t-19 -1.5t-12.5 -14.5t1 -18.5q6 -12 18.5 -27.5t32.5 -31.5z" />
    <glyph glyph-name="snowflake" unicode="&#xe6b1;" 
d="M481 -64h63v123l69 -68l45 45l-114 112v180l178 -102l41 -156l61 17l-25 94l85 -49l32 55l-85 49l95 26l-17 61l-156 -41l-177 102l178 102l155 -41l17 61l-95 25l85 49l-32 55l-85 -49l26 95l-62 17l-42 -157l-177 -102v205l114 114l-44 45l-70 -70v99h-63v-98l-69 69
l-46 -45l115 -114v-205l-157 90l-41 155l-60 -16l25 -95l-107 62l-32 -55l106 -61l-93 -26l16 -61l154 42l157 -90l-157 -90l-154 42l-16 -61l94 -25l-107 -63l32 -55l106 62l-24 -94l61 -17l41 155l156 91v-181l-114 -113l44 -44l70 69v-124z" />
    <glyph glyph-name="survey" unicode="&#xe6b2;" 
d="M722 849q30 0 50 -20t20 -49v-342l7 16l-397 -403l17 7h-281q-30 1 -49.5 20.5t-20.5 49.5v745l-23 -24h677zM21 896v-23v-745q2 -50 34.5 -82.5t82.5 -33.5h290l411 416v352q-1 49 -34 82t-83 34h-701zM776 307l-17 -16l127 -126l103 103l-127 126zM846 344l93 -93v33
l-70 -70h33l-93 93v-33l70 70h-33zM519 51l-5 -5l-32 -157l158 31l279 278l-127 126zM776 274l93 -93v33l-257 -256l12 7l-117 -24l28 -27l23 116l-6 -12l257 256h-33zM427 298q13 0 22 -9t9 -22v-9q0 -13 -9 -22t-22 -10v0q-14 1 -23 10t-9 22v9q0 13 9 22t23 9v0zM278 552
q0 -1 5 -10.5t22 -11.5q18 2 22.5 11.5t4.5 10.5q-3 107 99 102q67 -8 70 -76q-5 -31 -51 -79q-60 -61 -60 -109v-33q-1 -1 4 -9.5t21 -10.5q16 2 21 10.5t4 9.5v23q0 40 58 96q61 56 61 102q-5 127 -133 132q-148 2 -148 -158z" />
    <glyph glyph-name="tread" unicode="&#xe6c5;" 
d="M861 173l6 -58l-6 58q20 -1 35 13q5 7 5.5 15.5t-2.5 16.5l58 12l-58 -12l-99 336q-5 21 -18 37.5t-30 26.5q-7 4 -16 6.5t-16 2.5h-538q-17 3 -30 -4t-21 -21q-4 -8 -6 -15l-3 -14v-343q0 -14 7 -27t21 -21q10 -5 20 -6h192l19 -26l147 -188q5 -8 13 -10t16 0
q12 3 18 13t4 22l-9 119l-7 67h298zM627 115l10 -128q2 -22 -6 -40.5t-23 -32.5q-28 -24 -63.5 -22.5t-61.5 28.5l-157 195h-147q-29 1 -56.5 16t-43 41.5t-15.5 57.5v343q1 29 16 58t41 43.5t58 10.5h538q51 -3 88 -33t49 -79l103 -339q5 -22 2 -42.5t-15 -37.5
q-15 -18 -35 -28.5t-42 -10.5h-240zM304 627v-451h58v451h-58z" />
    <glyph glyph-name="praise" unicode="&#xe6c6;" 
d="M861 595h-298l7 67l9 119q2 12 -4 22t-18 13q-8 2 -16 0t-13 -10l-147 -188l-19 -26h-192q-10 -1 -20 -6q-14 -8 -21 -21t-7 -27v-343q0 -7 2 -15t7 -14q8 -14 21 -20.5t27 -4.5h538q18 0 32 9q19 10 32 26.5t16 37.5l102 336l58 -12l-58 12q2 8 1 16.5t-4 15.5
q-7 5 -16 9t-19 4l6 58zM627 653h240q22 0 42 -9.5t35 -29.5q12 -17 15 -38.5t-2 -41.5l-103 -339q-12 -48 -49 -78.5t-88 -33.5h-538q-32 -2 -58 13t-41 42.5t-16 56.5v343q0 31 15.5 57.5t42.5 41.5q14 7 28.5 10.5t28.5 5.5h144l157 195q26 27 61.5 28.5t63.5 -22.5
q15 -14 23 -32.5t6 -40.5zM304 141h58v451h-58v-451z" />
    <glyph glyph-name="rate-half" unicode="&#xe6c9;" 
d="M1012 504l-359 31l-141 331l-141 -332l-359 -30l273 -237l-82 -351l309 186l309 -186l-81 351zM512 196v465l86 -202l219 -19l-166 -144l50 -214z" />
    <glyph glyph-name="video" unicode="&#xe6ed;" 
d="M953 599v0v0zM101 661v0v0zM101 720v0v0zM661 740q13 0 26 -2q18 -5 34 -17q23 -18 32 -52q4 -21 3 -42l-1 -50l129 90q7 6 21 11q5 1 10 1q15 0 28.5 -10t16.5 -24t2 -26v-413q1 -12 -2.5 -26.5t-17.5 -25.5q-10 -8 -27 -8q-8 0 -15 2q-11 5 -16 10l-129 90l1 -50
q1 -22 -3 -44q-9 -33 -31 -50q-12 -10 -34 -17q-12 -3 -25 -2h-508q-25 -1 -46.5 7t-35.5 27t-18 46l-1 2v445q-1 20 0.5 40t9 36t20 28t28.5 18q9 3 15 3l3 1l4 1zM304 267l256 127v34l-256 128v-289zM661 781h-16l-518 -1l-7 -2q-8 -1 -23 -5q-23 -9 -41.5 -26.5
t-29 -40.5t-12.5 -47.5t-1 -47.5v-447l1 -6q7 -36 26 -63q20 -28 52 -41q16 -7 32 -8.5t31 -1.5l508 -1q20 0 34 4q17 4 29.5 11t19.5 13q34 26 46 73q3 13 4 25l62 -43q8 -7 27 -16q14 -5 30 -5q28 0 51 16q25 17 33 48q5 22 4 37v413q1 14 -4 36q-8 30 -31.5 47.5
t-52.5 17.5q-10 0 -20 -2q-13 -4 -22 -9.5t-14 -9.5l-63 -43q-1 11 -4 23q-12 48 -46 75q-24 18 -50 24q-15 3 -35 3v0zM345 333v157l157 -79zM347 429v-121v121z" />
    <glyph glyph-name="headset" unicode="&#xe6fc;" 
d="M356 2v0v283h-103v-283h103zM665 285h103v-283h-103v283zM64 302q-1 -31 -1 -75t6 -73h66q-7 29 -7.5 72.5t-0.5 75.5q4 169 113 281.5t272 116.5q164 -4 272.5 -116.5t112.5 -281.5q0 -32 -0.5 -75.5t-7.5 -72.5h66q6 29 6 73l-1 75q-5 197 -131.5 328t-316.5 136
q-190 -5 -316.5 -136t-131.5 -328z" />
    <glyph glyph-name="tips" unicode="&#xe702;" 
d="M967 579q-37 88 -105.5 156.5t-157.5 106.5q-92 38 -192.5 38t-192.5 -38q-89 -38 -157 -106.5t-106 -156.5q-39 -92 -39 -192.5t39 -192.5q38 -89 106 -157.5t157 -106.5q92 -38 192.5 -38t192.5 38q89 38 157.5 106.5t105.5 157.5q39 92 39 192.5t-39 192.5zM512 -55
q-188 5 -312.5 129.5t-129.5 311.5q5 187 129.5 312t312.5 129q187 -5 311.5 -129.5t129.5 -311.5q-5 -187 -129.5 -311.5t-311.5 -129.5zM512 574zM466 574q1 -20 13.5 -32.5t32 -12.5t32.5 12.5t13 32t-13 32.5t-32.5 13t-32 -13t-13.5 -32zM543 184q-1 -13 -9.5 -22
t-21.5 -9v0q-14 0 -22.5 9t-8.5 22v243q0 13 8.5 22t22.5 9v0q13 0 21.5 -9t9.5 -22v-243z" />
    <glyph glyph-name="read" unicode="&#xe705;" 
d="M335 712q48 1 81.5 -10.5t53.5 -32.5q14 -13 20 -28q4 -8 4 -10v6v-440q-1 4 10 10q11 4 13 1l-16 -20l20 16q-10 15 -45 33q-54 28 -147.5 28t-141.5 -27q-32 -19 -40 -37l23 -11l-19 17q1 2 5.5 3t11.5 -2t9 -6t2 -5v440l-3 -13q2 4 9 13q12 16 29 31q50 44 121 44v0z
M335 764q-45 0 -83.5 -15t-70.5 -42q-19 -16 -31 -31t-19 -27l-3 -5v-447q2 -29 21.5 -36.5t39.5 12.5l3 3l1 3q1 3 19 14q36 21 117 21t124 -23q24 -12 27 -18l2 -2l2 -2q22 -17 41 -8.5t20 36.5v440l-1 5q-2 13 -11.5 29.5t-26.5 34.5q-28 28 -70.5 43t-100.5 15v0zM0 506
v-478q1 -28 20.5 -36.5t40.5 9.5l2 2q3 4 13 13q18 15 43 30q72 44 173 45q50 0 88.5 -13.5t67.5 -37.5q20 -17 33 -35q7 -10 9 -14q5 -10 14.5 -13t19.5 1.5t13 14t-1 19.5q-6 14 -20 31t-35 35q-36 30 -83 46.5t-105 16.5t-108 -13.5t-92 -38.5q-25 -14 -42 -28t-26 -25
l19 -17l-17 19q2 3 14 0q11 -7 10 -11v478q0 11 -7.5 18t-18 7t-18 -7t-7.5 -18v0zM697 764q-59 0 -101.5 -15t-70.5 -43q-17 -18 -26 -34.5t-12 -29.5l-1 -5v-440q2 -28 21 -36.5t40 8.5l2 2l2 2q3 6 27 18q43 23 124.5 23t117.5 -21q18 -11 18 -14l2 -3l2 -3
q20 -20 40 -12.5t21 36.5v447l-3 5q-6 12 -18.5 27t-31.5 31q-31 27 -69.5 42t-84.5 15h1zM697 712q70 0 120 -44q17 -15 29 -31q8 -9 10 -13l-4 13v-440q0 2 2.5 5t9.5 6t11 2t5 -3l-19 -17l23 11q-7 18 -40 37q-48 27 -141 27t-148 -28q-35 -18 -45 -33l21 -16l-17 20
q2 3 14 -1q10 -6 10 -10v440l-1 -6q0 2 4 10q7 15 20 28q21 21 54 32.5t81 10.5h1zM973 506v-478q-1 4 10 11q12 3 14 0l-17 -19l19 17q-9 11 -26 25t-42 28q-42 25 -92 38.5t-108 13.5t-105 -17.5t-83 -48.5q-21 -19 -34.5 -37t-19.5 -32q-5 -10 -1 -19.5t13.5 -14t19.5 -1
t14 13.5q2 4 9 15q13 19 33 36q29 26 67 40t88 14q101 -1 173 -45q25 -15 43 -30q10 -9 13 -13l2 -2q21 -18 40.5 -9.5t20.5 36.5v478q0 11 -7.5 18t-18 7t-18 -7t-7.5 -18v0z" />
    <glyph glyph-name="slider" unicode="&#xe714;" 
d="M229 684v-67h-117v67h117zM562 417v-66h-450v66h450zM295 151v-67h-183v67h183zM412 751q13 0 23 -10t10 -24v-133q0 -14 -9.5 -23.5t-23.5 -9.5h-133q-14 0 -24 9.5t-10 23.5v133q0 14 10 23.5t24 10.5h133v0zM479 217q13 0 23 -9.5t10 -23.5v-133q0 -14 -10 -24
t-23 -10h-134q-13 0 -23 10t-10 24v133q0 13 10 23t23 10h134zM912 684v-67h-450v67h450zM912 151v-67h-383v67h383zM745 484q14 0 24 -10t10 -23v-134q0 -13 -10 -23t-24 -10h-133q-13 0 -23 9.5t-10 23.5v134q0 13 9.5 23t23.5 10h133zM912 417v-66h-117v66h117z" />
    <glyph glyph-name="location" unicode="&#xe715;" 
d="M452 -98q21 -23 49.5 -23t49.5 23l15 16q18 20 39 45q60 72 117 150.5t97 151.5q76 133 77 229q-4 171 -115.5 284.5t-279.5 117.5q-167 -4 -278.5 -117.5t-115.5 -284.5q1 -96 77 -230q40 -72 97 -151t117 -150q21 -25 39 -45l15 -17v1zM487 -65q-4 4 -14 16
q-18 19 -38 43q-60 71 -115.5 147.5t-94.5 146.5q-34 62 -52 114t-18 92q3 150 101 249.5t245 103.5q148 -4 245.5 -103.5t101.5 -249.5q0 -40 -18 -92t-52 -113q-39 -70 -94.5 -147t-115.5 -147q-20 -25 -38 -44l-14 -16q-7 -7 -15 -7.5t-14 6.5v1zM715 429q13 37 14 77
q-3 93 -63.5 155t-152.5 64q-91 -2 -152 -64t-63 -155q2 -93 63 -155t152 -65q54 1 101 26q9 5 12 14.5t-2 18.5t-14 12t-18 -2q-37 -20 -79 -20q-71 2 -118 50t-49 121q2 72 49 120.5t118 50.5q71 -2 118.5 -50.5t49.5 -120.5q0 -31 -11 -60q-3 -10 1 -18.5t13.5 -12.5
t18 0t12.5 14v0z" />
    <glyph glyph-name="set" unicode="&#xe716;" 
d="M466 -127h-1q-19 2 -33.5 15.5t-17.5 32.5l-18 102q0 3 -3.5 7t-6.5 5l-31 13q-4 2 -9.5 1t-7.5 -2l-85 -60q-15 -10 -35 -9.5t-35 12.5l-64 64q-14 16 -15 35.5t10 36.5l60 84q2 3 2.5 7.5t-1.5 7.5v0l-1 4l-12 27q-1 4 -1 3q-1 3 -4.5 6t-6.5 4l-103 17q-19 4 -32 18
t-15 34v90q2 21 15 36t33 18l102 17q3 1 7 4.5t5 6.5l13 30q2 4 1.5 9.5t-2.5 8.5l-60 84q-11 16 -10 35.5t13 34.5l64 64q17 14 36.5 15t35.5 -10l85 -60q2 -1 7.5 -1.5t6.5 0t4 1.5l27 12l3 1q3 1 6.5 4.5t3.5 6.5l18 102q3 20 17.5 33t34.5 15h90q21 -2 36 -15.5
t18 -32.5l18 -102q0 -3 3.5 -7t6.5 -6l31 -12q5 -2 10 -1.5t7 2.5l85 60q16 10 35.5 9.5t34.5 -12.5l64 -64q14 -16 15 -35.5t-10 -36.5l-60 -84q-2 -3 -2.5 -7.5t1.5 -7.5l1 -3l11 -28q2 -3 2 -2q1 -4 4.5 -7t6.5 -4l103 -17q19 -4 32 -18t15 -34v-90q-2 -21 -15 -36
t-33 -18l-102 -17q-3 -1 -7 -4.5t-5 -6.5l-13 -30q-2 -4 -1.5 -9.5t2.5 -8.5l60 -84q11 -16 10 -35.5t-13 -34.5l-64 -64q-18 -15 -39 -15v0q-19 0 -33 10l-85 60q-2 1 -7.5 1.5t-6.5 0t-4 -1.5l-27 -12l-3 -1q-3 -1 -6.5 -4.5t-3.5 -6.5l-18 -103q-4 -19 -18 -32t-34 -15
h-92zM348 101q16 0 28 -7l28 -11q16 -6 28 -20t15 -31l17 -103q1 -3 5 -5l88 1l1 1q1 2 2 3l17 103q4 17 16.5 31.5t29.5 19.5h-0.5t12.5 5l13 6q15 7 34 6t34 -11l85 -60q0 -1 3 -1v0q3 0 4 1l61 61v3q0 2 -1 3l-60 85q-10 14 -11.5 33t5.5 35l12 27q6 16 20 28t32 15
l102 17q4 2 5 6v86l-2 2q-1 1 -3 2l-102 17q-18 3 -32.5 15.5t-19.5 29.5v0q0 -1 -5 13l-6 13q-8 15 -6.5 34t11.5 33l60 85q2 4 0 7l-61 61q0 -1 -3 -0.5t-3 -0.5l-85 -60q-14 -9 -33 -11t-35 6l-28 11q-16 6 -28 20t-15 31l-17 103q-2 3 -6 5h-86l-2 -2q-1 -2 -2 -3
l-17 -102q-3 -18 -16 -32.5t-29 -19.5l-13 -5l-13 -6q-14 -7 -33.5 -5.5t-34.5 10.5l-85 60l-3 1l-4 -1l-61 -61v0v-3q0 -2 1 -3l60 -85q10 -14 11.5 -33t-5.5 -35l-12 -27q-5 -16 -19.5 -28t-32.5 -15l-102 -17q-4 -2 -5 -6v-86l2 -2q1 -1 3 -2l102 -17q18 -3 32.5 -15.5
t19.5 -29.5l11 -25q8 -16 6.5 -34.5t-11.5 -33.5l-60 -85q-2 -4 0 -7l61 -61q0 1 3 0.5t3 0.5l85 60q17 11 40 12zM512 134q-106 3 -177 73.5t-74 176.5q3 106 74 176.5t177 73.5q106 -3 177 -73.5t74 -176.5q-3 -106 -74 -176.5t-177 -73.5zM512 583q-85 -2 -141 -58
t-59 -141q3 -84 59 -140.5t141 -58.5q85 2 141.5 58.5t58.5 140.5q-2 85 -58.5 141t-141.5 58z" />
    <glyph glyph-name="diamond" unicode="&#xe735;" 
d="M998 527l-200 275q-4 5 -9 8t-10 3h-536l-8 -3t-15 -14q-29 -46 -104 -158l-84 -126l-11 -17l448 -523q6 -6 11.5 -9t20 -5t26.5 6q3 1 5.5 4t5.5 4l409 421q8 6 8 16.5t-7.5 18t-16.5 7.5t-16 -8l-354 -365l154 422h251l11 1q9 0 13 4l2 2q10 5 11.5 14.5t-5.5 21.5z
M783 764l-96 -226h-346l-85 226h527zM222 715l72 -180h-192zM92 489h215l139 -416zM503 45l-147 444h307zM736 535l75 167l119 -169h-194v2z" />
    <glyph glyph-name="fire" unicode="&#xe756;" 
d="M890 352q-33 80 -39.5 147t6.5 119q3 11 6 19l18 59l-61 -26q-10 -4 -19 -10q-25 -14 -47 -37q-40 -42 -62 -113q-13 -40 -16.5 -77.5t-2.5 -84.5v-21v-9q1 5 7.5 9.5t15.5 1.5q-2 1 -7.5 8.5t-12.5 23.5q-24 56 -39 188q-9 76 -6 139t14 113q4 21 9 36l4 11l21 48
l-51 -15q-17 -5 -50 -25q-54 -33 -104 -95q-40 -51 -71 -119q-36 -80 -50 -139q-6 -23 -9 -44l-4 -31q-2 -14 -4 -20t-7 -10q5 5 10 5.5t8 -1.5q-3 2 -9 10q-17 25 -24 77q-4 31 -4 88q1 37 2 78l6 108l-51 -56l-13 -14q-19 -22 -37 -45l-16 -21q-18 -27 -33.5 -55
t-29.5 -60q-35 -82 -45 -161.5t6 -162.5q21 -103 66.5 -170.5t113.5 -102.5q48 -25 102 -34t127 -9q14 0 36 2t47 6q76 11 135 39q9 5 12 14.5t-1.5 18.5t-13.5 12.5t-19 -1.5q-51 -25 -121 -35q-23 -4 -43 -5.5t-32 -1.5q-68 0 -116.5 8t-90.5 30q-57 29 -96 87.5
t-58 151.5q-15 75 -6 147t42 148q13 30 27 55.5t31 49.5l15 20q17 22 35 43l16 19l-42 17l-2 -40q-1 -42 -2 -80q0 -60 4 -94q10 -68 38 -106.5t59 -14.5q13 11 18.5 24.5t8.5 35.5q6 51 17.5 93t40.5 105.5t66 110.5q44 55 91 83q16 10 29 16l10 4l-30 33q-7 -15 -16 -55
q-12 -54 -15 -121t6 -147q15 -126 38 -188t53 -72q17 -6 28 2t14 25q1 5 1 13v25q-1 43 2.5 77t14.5 69q19 61 51 95q14 15 27 23.5t35 17.5l-9 22l-24 7q2 7 -2 -5t-7 -25q-15 -60 -8 -134.5t43 -162.5q28 -71 22.5 -146t-43.5 -126q-6 -8 -5 -17.5t9.5 -16t18 -5.5t16.5 9
q46 62 53 150t-26 171z" />
    <glyph glyph-name="screen-restore" unicode="&#xe758;" 
d="M583 455v320h50v-235l274 274l35 -35l-274 -274h235v-50h-320zM117 -46l274 274v-235h50v320h-320v-50h235l-274 -274zM132 764h302v50h-352v-352h50v302zM892 4h-302v-50h352v352h-50v-302z" />
    <glyph glyph-name="user" unicode="&#xe770;" 
d="M611 342q54 42 84.5 102.5t30.5 128.5q-3 121 -83.5 202.5t-200.5 85.5q-121 -3 -201.5 -83.5t-83.5 -201.5q0 -71 31 -133t84 -104q-124 -53 -197 -165t-75 -254q0 -7 6 -13t13 -6h848q8 0 13.5 6t5.5 13q-1 144 -75.5 257t-199.5 165zM35 -54q9 130 85 231.5t200 142.5
q5 3 9 7t4 9t-2.5 11t-7.5 8q-58 33 -92.5 93t-35.5 131q3 104 73 174t174 73q103 -3 173 -73.5t73 -176.5q-1 -68 -35.5 -127t-92.5 -94q-10 -5 -10 -19q1 -5 4.5 -9t8.5 -7q122 -41 198.5 -143t83.5 -235h-810v4zM813 362q41 32 63.5 78t22.5 98q-1 68 -37 124t-97 84
q-8 2 -15.5 -0.5t-10 -10t0 -15t9.5 -10.5q51 -22 81 -69t31 -103q-1 -52 -26.5 -95.5t-69.5 -68.5q-10 -4 -10 -19q0 -5 4 -9t9 -7q100 -33 158 -112.5t60 -184.5q0 -8 5.5 -13.5t13 -5.5t13.5 5.5t6 13.5q-4 107 -60 191t-151 129z" />
    <glyph glyph-name="website" unicode="&#xe7ae;" 
d="M777 147q-21 17 -36 30.5t-40 23.5q19 43 29.5 73.5t12.5 81.5h145q-3 -72 -32 -117t-79 -92zM136 356h167q2 -51 12.5 -81.5t29.5 -73.5q-52 -20 -98 -54q-50 47 -79 92t-32 117zM239 616q44 -36 97 -58q-15 -39 -23 -73t-9 -80h-168q3 67 31.5 116t71.5 95zM548 406
v118q34 1 59 7.5t55 17.5q14 -37 21.5 -69t9.5 -74h-145zM653 211q-29 10 -51 15t-54 6v124h145q-2 -48 -12 -76.5t-28 -68.5zM690 153q22 -9 34.5 -21t31.5 -26q-39 -34 -85 -55.5t-97 -29.5q29 28 62.5 61.5t53.5 70.5zM526 16l22 166q29 -1 48 -6t45 -13
q-42 -85 -113 -147h-2zM450 21q-50 8 -96.5 30t-85.5 55q42 29 88 47q36 -73 94 -132zM498 356v-124q-32 -1 -54 -6t-51 -15q-18 41 -28 69t-12 76h145zM384 549q30 -11 55 -17.5t59 -7.5v-118h-145q2 42 9.5 74t21.5 69zM346 606q-47 20 -88 52q40 39 87.5 66.5t104.5 37.5
q-67 -67 -104 -156zM498 768v-194q-32 1 -54 6.5t-50 16.5q21 51 42.5 94.5t59.5 76.5h2zM574 763q58 -10 110.5 -36.5t95.5 -67.5q-21 -17 -38 -29.5t-42 -22.5q-20 45 -56 84t-70 72zM528 768q41 -35 72 -78.5t52 -92.5q-28 -11 -50 -16.5t-54 -6.5l-22 194h2zM496 17
q-33 29 -52 66t-39 81q26 8 45.5 13t47.5 5v-165h-2zM888 406h-145q-1 45 -9 79t-23 73q27 12 46.5 26t42.5 32q42 -46 64 -95t24 -115zM512 834q-188 -5 -312.5 -129.5t-129.5 -312.5q5 -188 129.5 -313t312.5 -129q188 4 312.5 129t129.5 313q-5 188 -129.5 312.5
t-312.5 129.5z" />
    <glyph glyph-name="component" unicode="&#xe857;" 
d="M917 653l-416 238q-17 9 -34 0l-417 -239q-16 -10 -17 -29v-477q1 -20 17 -30l417 -238q17 -9 34 0l416 238q17 10 17 30v477q0 19 -17 30zM866 165l-382 -219l-383 219v439l383 219l382 -219v-439zM199 535q-7 -12 -3.5 -25.5t15.5 -20.5l238 -136v-270
q1 -14 10.5 -23.5t23.5 -10t24 9.5t11 24v269l238 137q12 7 16 20.5t-3.5 26t-20.5 16t-26 -3.5l-238 -136l-238 136q-13 7 -26.5 3.5t-20.5 -16.5z" />
    <glyph glyph-name="refresh-3" unicode="&#xe9aa;" 
d="M820 697q-60 59 -139 92t-169 33q-188 -5 -313 -130t-130 -313q5 -188 130 -313t313 -130q157 3 273 94.5t156 237.5h-118q-36 -98 -119 -157.5t-192 -61.5q-140 4 -233.5 97t-96.5 233q3 141 96.5 234t233.5 96q67 0 125.5 -24t103.5 -68l-184 -183h398v398z" />
  </font>
</defs>
</svg>
